<?xml version="1.0" encoding="UTF-8" standalone="no"?>
<svg
   width="1024"
   height="1024"
   viewBox="0 0 1024 1024"
   version="1.1"
   id="svg909"
   sodipodi:docname="int_logo_v4.svg"
   inkscape:version="1.2.2 (b0a8486541, 2022-12-01)"
   xmlns:inkscape="http://www.inkscape.org/namespaces/inkscape"
   xmlns:sodipodi="http://sodipodi.sourceforge.net/DTD/sodipodi-0.dtd"
   xmlns="http://www.w3.org/2000/svg"
   xmlns:svg="http://www.w3.org/2000/svg">
  <defs
     id="defs913" />
  <sodipodi:namedview
     id="namedview911"
     pagecolor="#ffffff"
     bordercolor="#000000"
     borderopacity="0.25"
     inkscape:showpageshadow="2"
     inkscape:pageopacity="0.0"
     inkscape:pagecheckerboard="0"
     inkscape:deskcolor="#d1d1d1"
     showgrid="false"
     inkscape:zoom="1.0029297"
     inkscape:cx="291.14703"
     inkscape:cy="388.86076"
     inkscape:window-width="3440"
     inkscape:window-height="1367"
     inkscape:window-x="0"
     inkscape:window-y="0"
     inkscape:window-maximized="1"
     inkscape:current-layer="g8204" />
  <g
     id="g8204"
     transform="matrix(0,1.2704371,-1.2675705,0,1154.8272,-137.15249)">
    <path
       d="m 250.5,497 v 1 1 1 1 1 1 1 1 1 1 1 1 1 1 1 1 1 1 1 1 1 1 1 1 1 1 1 l 0.5,0.5 0.5,0.5 v 1 1 1 1 1 1 1 l 0.5,0.5 0.5,0.5 v 1 1 1 1 1 l 0.5,0.5 0.5,0.5 v 1 1 1 1 l 0.5,0.5 0.5,0.5 v 1 1 1 l 0.5,0.5 0.5,0.5 v 1 1 1 l 0.5,0.5 0.5,0.5 v 1 1 l 0.5,0.5 0.5,0.5 v 1 1 l 0.5,0.5 0.5,0.5 v 1 1 l 0.5,0.5 0.5,0.5 v 1 1 l 0.5,0.5 0.5,0.5 v 1 1 l 0.5,0.5 0.5,0.5 v 1 l 0.5,0.5 0.5,0.5 v 1 1 l 0.5,0.5 0.5,0.5 v 1 l 0.5,0.5 0.5,0.5 v 1 l 0.5,0.5 0.5,0.5 v 1 l 0.5,0.5 0.5,0.5 v 1 l 0.5,0.5 0.5,0.5 v 1 l 0.5,0.5 0.5,0.5 v 1 l 0.5,0.5 0.5,0.5 v 1 l 0.5,0.5 0.5,0.5 v 1 l 0.5,0.5 0.5,0.5 0.5,0.5 0.5,0.5 v 1 l 0.5,0.5 0.5,0.5 v 1 l 0.5,0.5 0.5,0.5 0.5,0.5 0.5,0.5 v 1 l 0.5,0.5 0.5,0.5 0.5,0.5 0.5,0.5 v 1 l 0.5,0.5 0.5,0.5 0.5,0.5 0.5,0.5 0.5,0.5 0.5,0.5 v 1 l 0.5,0.5 0.5,0.5 0.5,0.5 0.5,0.5 0.5,0.5 0.5,0.5 0.5,0.5 0.5,0.5 v 1 l 0.5,0.5 0.5,0.5 0.5,0.5 0.5,0.5 0.5,0.5 0.5,0.5 0.5,0.5 0.5,0.5 0.5,0.5 0.5,0.5 v 1 l 0.5,0.5 0.5,0.5 0.5,0.5 0.5,0.5 0.5,0.5 0.5,0.5 0.5,0.5 0.5,0.5 0.5,0.5 0.5,0.5 0.5,0.5 0.5,0.5 0.5,0.5 0.5,0.5 0.5,0.5 0.5,0.5 0.5,0.5 0.5,0.5 0.5,0.5 h 1 l 0.5,0.5 0.5,0.5 0.5,0.5 0.5,0.5 0.5,0.5 0.5,0.5 0.5,0.5 0.5,0.5 0.5,0.5 0.5,0.5 0.5,0.5 0.5,0.5 h 1 l 0.5,0.5 0.5,0.5 0.5,0.5 0.5,0.5 0.5,0.5 0.5,0.5 h 1 l 0.5,0.5 0.5,0.5 0.5,0.5 0.5,0.5 0.5,0.5 0.5,0.5 h 1 l 0.5,0.5 0.5,0.5 0.5,0.5 0.5,0.5 h 1 l 0.5,0.5 0.5,0.5 0.5,0.5 0.5,0.5 h 1 l 0.5,0.5 0.5,0.5 h 1 l 0.5,0.5 0.5,0.5 0.5,0.5 0.5,0.5 h 1 l 0.5,0.5 0.5,0.5 h 1 l 0.5,0.5 0.5,0.5 h 1 l 0.5,0.5 0.5,0.5 h 1 l 0.5,0.5 0.5,0.5 h 1 l 0.5,0.5 0.5,0.5 h 1 l 0.5,0.5 0.5,0.5 h 1 l 0.5,0.5 0.5,0.5 h 1 l 0.5,0.5 0.5,0.5 h 1 1 l 0.5,0.5 0.5,0.5 h 1 l 0.5,0.5 0.5,0.5 h 1 1 l 0.5,0.5 0.5,0.5 h 1 1 l 0.5,0.5 0.5,0.5 h 1 1 l 0.5,0.5 0.5,0.5 h 1 1 l 0.5,0.5 0.5,0.5 h 1 1 l 0.5,0.5 0.5,0.5 h 1 1 1 l 0.5,0.5 0.5,0.5 h 1 1 1 1 l 0.5,0.5 0.5,0.5 h 1 1 1 1 l 0.5,0.5 0.5,0.5 h 1 1 1 1 1 l 0.5,0.5 0.5,0.5 h 1 1 1 1 1 1 1 1 l 0.5,0.5 0.5,0.5 h 1 1 1 1 1 1 1 1 1 1 1 1 1 1 1 1 1 1 1 1 1 1 l 0.5,-0.5 0.5,-0.5 h 1 1 1 1 1 1 1 1 1 l 0.5,-0.5 0.5,-0.5 h 1 1 1 1 l 0.5,-0.5 0.5,-0.5 h 1 1 1 1 l 0.5,-0.5 0.5,-0.5 h 1 1 1 1 l 0.5,-0.5 0.5,-0.5 h 1 1 l 0.5,-0.5 0.5,-0.5 h 1 1 1 l 0.5,-0.5 0.5,-0.5 h 1 1 l 0.5,-0.5 0.5,-0.5 h 1 1 l 0.5,-0.5 0.5,-0.5 h 1 1 l 0.5,-0.5 0.5,-0.5 h 1 l 0.5,-0.5 0.5,-0.5 h 1 1 l 0.5,-0.5 0.5,-0.5 h 1 l 0.5,-0.5 0.5,-0.5 h 1 l 0.5,-0.5 0.5,-0.5 h 1 l 0.5,-0.5 0.5,-0.5 h 1 1 l 0.5,-0.5 0.5,-0.5 0.5,-0.5 0.5,-0.5 h 1 l 0.5,-0.5 0.5,-0.5 h 1 l 0.5,-0.5 0.5,-0.5 h 1 l 0.5,-0.5 0.5,-0.5 h 1 l 0.5,-0.5 0.5,-0.5 0.5,-0.5 0.5,-0.5 h 1 l 0.5,-0.5 0.5,-0.5 0.5,-0.5 0.5,-0.5 h 1 l 0.5,-0.5 0.5,-0.5 h 1 l 0.5,-0.5 0.5,-0.5 0.5,-0.5 0.5,-0.5 0.5,-0.5 0.5,-0.5 h 1 l 0.5,-0.5 0.5,-0.5 0.5,-0.5 0.5,-0.5 h 1 l 0.5,-0.5 0.5,-0.5 0.5,-0.5 0.5,-0.5 0.5,-0.5 0.5,-0.5 h 1 l 0.5,-0.5 0.5,-0.5 0.5,-0.5 0.5,-0.5 0.5,-0.5 0.5,-0.5 0.5,-0.5 0.5,-0.5 h 1 l 0.5,-0.5 0.5,-0.5 0.5,-0.5 0.5,-0.5 0.5,-0.5 0.5,-0.5 h 1 l 0.5,-0.5 0.5,-0.5 0.5,-0.5 0.5,-0.5 0.5,-0.5 0.5,-0.5 h 1 l 0.5,-0.5 0.5,-0.5 0.5,-0.5 0.5,-0.5 0.5,-0.5 0.5,-0.5 0.5,-0.5 0.5,-0.5 0.5,-0.5 0.5,-0.5 h 1 l 0.5,-0.5 0.5,-0.5 0.5,-0.5 0.5,-0.5 0.5,-0.5 0.5,-0.5 0.5,-0.5 0.5,-0.5 h 1 l 0.5,-0.5 0.5,-0.5 0.5,-0.5 0.5,-0.5 0.5,-0.5 0.5,-0.5 0.5,-0.5 0.5,-0.5 0.5,-0.5 0.5,-0.5 h 1 l 0.5,-0.5 0.5,-0.5 0.5,-0.5 0.5,-0.5 0.5,-0.5 0.5,-0.5 0.5,-0.5 0.5,-0.5 0.5,-0.5 0.5,-0.5 h 1 l 0.5,-0.5 0.5,-0.5 0.5,-0.5 0.5,-0.5 0.5,-0.5 0.5,-0.5 0.5,-0.5 0.5,-0.5 0.5,-0.5 0.5,-0.5 h 1 l 0.5,-0.5 0.5,-0.5 0.5,-0.5 0.5,-0.5 0.5,-0.5 0.5,-0.5 0.5,-0.5 0.5,-0.5 0.5,-0.5 0.5,-0.5 h 1 l 0.5,-0.5 0.5,-0.5 0.5,-0.5 0.5,-0.5 0.5,-0.5 0.5,-0.5 0.5,-0.5 0.5,-0.5 0.5,-0.5 0.5,-0.5 h 1 l 0.5,-0.5 0.5,-0.5 0.5,-0.5 0.5,-0.5 0.5,-0.5 0.5,-0.5 0.5,-0.5 0.5,-0.5 0.5,-0.5 0.5,-0.5 h 1 l 0.5,-0.5 0.5,-0.5 0.5,-0.5 0.5,-0.5 0.5,-0.5 0.5,-0.5 0.5,-0.5 0.5,-0.5 0.5,-0.5 0.5,-0.5 h 1 l 0.5,-0.5 0.5,-0.5 0.5,-0.5 0.5,-0.5 0.5,-0.5 0.5,-0.5 0.5,-0.5 0.5,-0.5 0.5,-0.5 0.5,-0.5 h 1 l 0.5,-0.5 0.5,-0.5 0.5,-0.5 0.5,-0.5 0.5,-0.5 0.5,-0.5 0.5,-0.5 0.5,-0.5 0.5,-0.5 0.5,-0.5 0.5,-0.5 0.5,-0.5 h 1 l 0.5,-0.5 0.5,-0.5 0.5,-0.5 0.5,-0.5 0.5,-0.5 0.5,-0.5 0.5,-0.5 0.5,-0.5 0.5,-0.5 0.5,-0.5 0.5,-0.5 0.5,-0.5 h 1 l 0.5,-0.5 0.5,-0.5 0.5,-0.5 0.5,-0.5 0.5,-0.5 0.5,-0.5 0.5,-0.5 0.5,-0.5 0.5,-0.5 0.5,-0.5 h 1 l 0.5,-0.5 0.5,-0.5 0.5,-0.5 0.5,-0.5 0.5,-0.5 0.5,-0.5 0.5,-0.5 0.5,-0.5 0.5,-0.5 0.5,-0.5 0.5,-0.5 0.5,-0.5 h 1 l 0.5,-0.5 0.5,-0.5 0.5,-0.5 0.5,-0.5 0.5,-0.5 0.5,-0.5 0.5,-0.5 0.5,-0.5 0.5,-0.5 0.5,-0.5 h 1 l 0.5,-0.5 0.5,-0.5 0.5,-0.5 0.5,-0.5 0.5,-0.5 0.5,-0.5 0.5,-0.5 0.5,-0.5 0.5,-0.5 0.5,-0.5 0.5,-0.5 0.5,-0.5 h 1 l 0.5,-0.5 0.5,-0.5 0.5,-0.5 0.5,-0.5 0.5,-0.5 0.5,-0.5 0.5,-0.5 0.5,-0.5 0.5,-0.5 0.5,-0.5 0.5,-0.5 0.5,-0.5 h 1 l 0.5,-0.5 0.5,-0.5 0.5,-0.5 0.5,-0.5 0.5,-0.5 0.5,-0.5 0.5,-0.5 0.5,-0.5 0.5,-0.5 0.5,-0.5 h 1 l 0.5,-0.5 0.5,-0.5 0.5,-0.5 0.5,-0.5 0.5,-0.5 0.5,-0.5 0.5,-0.5 0.5,-0.5 0.5,-0.5 0.5,-0.5 0.5,-0.5 0.5,-0.5 h 1 l 0.5,-0.5 0.5,-0.5 0.5,-0.5 0.5,-0.5 0.5,-0.5 0.5,-0.5 0.5,-0.5 0.5,-0.5 0.5,-0.5 v -1 l 0.5,-0.5 0.5,-0.5 v -1 -1 -1 -1 -1 l -0.5,-0.5 -0.5,-0.5 v -1 l -0.5,-0.5 -0.5,-0.5 -0.5,-0.5 -0.5,-0.5 -0.5,-0.5 -0.5,-0.5 -0.5,-0.5 h -1 l -0.5,-0.5 -0.5,-0.5 -0.5,-0.5 -0.5,-0.5 -0.5,-0.5 -0.5,-0.5 -0.5,-0.5 -0.5,-0.5 -0.5,-0.5 -0.5,-0.5 h -1 l -0.5,-0.5 -0.5,-0.5 -0.5,-0.5 -0.5,-0.5 -0.5,-0.5 -0.5,-0.5 -0.5,-0.5 -0.5,-0.5 -0.5,-0.5 -0.5,-0.5 -0.5,-0.5 -0.5,-0.5 h -1 l -0.5,-0.5 -0.5,-0.5 -0.5,-0.5 -0.5,-0.5 -0.5,-0.5 -0.5,-0.5 -0.5,-0.5 -0.5,-0.5 -0.5,-0.5 -0.5,-0.5 h -1 l -0.5,-0.5 -0.5,-0.5 -0.5,-0.5 -0.5,-0.5 -0.5,-0.5 -0.5,-0.5 -0.5,-0.5 -0.5,-0.5 -0.5,-0.5 -0.5,-0.5 -0.5,-0.5 -0.5,-0.5 h -1 l -0.5,-0.5 -0.5,-0.5 -0.5,-0.5 -0.5,-0.5 -0.5,-0.5 -0.5,-0.5 -0.5,-0.5 -0.5,-0.5 -0.5,-0.5 -0.5,-0.5 h -1 l -0.5,-0.5 -0.5,-0.5 -0.5,-0.5 -0.5,-0.5 -0.5,-0.5 -0.5,-0.5 -0.5,-0.5 -0.5,-0.5 -0.5,-0.5 -0.5,-0.5 -0.5,-0.5 -0.5,-0.5 h -1 l -0.5,-0.5 -0.5,-0.5 -0.5,-0.5 -0.5,-0.5 -0.5,-0.5 -0.5,-0.5 -0.5,-0.5 -0.5,-0.5 -0.5,-0.5 -0.5,-0.5 h -1 l -0.5,-0.5 -0.5,-0.5 -0.5,-0.5 -0.5,-0.5 -0.5,-0.5 -0.5,-0.5 -0.5,-0.5 -0.5,-0.5 -0.5,-0.5 -0.5,-0.5 -0.5,-0.5 -0.5,-0.5 h -1 l -0.5,-0.5 -0.5,-0.5 -0.5,-0.5 -0.5,-0.5 -0.5,-0.5 -0.5,-0.5 -0.5,-0.5 -0.5,-0.5 -0.5,-0.5 -0.5,-0.5 h -1 l -0.5,-0.5 -0.5,-0.5 -0.5,-0.5 -0.5,-0.5 -0.5,-0.5 -0.5,-0.5 -0.5,-0.5 -0.5,-0.5 -0.5,-0.5 -0.5,-0.5 -0.5,-0.5 -0.5,-0.5 h -1 l -0.5,-0.5 -0.5,-0.5 -0.5,-0.5 -0.5,-0.5 -0.5,-0.5 -0.5,-0.5 -0.5,-0.5 -0.5,-0.5 -0.5,-0.5 -0.5,-0.5 h -1 l -0.5,-0.5 -0.5,-0.5 -0.5,-0.5 -0.5,-0.5 -0.5,-0.5 -0.5,-0.5 -0.5,-0.5 -0.5,-0.5 -0.5,-0.5 -0.5,-0.5 h -1 l -0.5,-0.5 -0.5,-0.5 -0.5,-0.5 -0.5,-0.5 -0.5,-0.5 -0.5,-0.5 -0.5,-0.5 -0.5,-0.5 -0.5,-0.5 -0.5,-0.5 h -1 l -0.5,-0.5 -0.5,-0.5 -0.5,-0.5 -0.5,-0.5 -0.5,-0.5 -0.5,-0.5 -0.5,-0.5 -0.5,-0.5 -0.5,-0.5 -0.5,-0.5 h -1 l -0.5,-0.5 -0.5,-0.5 -0.5,-0.5 -0.5,-0.5 -0.5,-0.5 -0.5,-0.5 -0.5,-0.5 -0.5,-0.5 -0.5,-0.5 -0.5,-0.5 h -1 l -0.5,-0.5 -0.5,-0.5 -0.5,-0.5 -0.5,-0.5 -0.5,-0.5 -0.5,-0.5 -0.5,-0.5 -0.5,-0.5 -0.5,-0.5 -0.5,-0.5 h -1 l -0.5,-0.5 -0.5,-0.5 -0.5,-0.5 -0.5,-0.5 -0.5,-0.5 -0.5,-0.5 -0.5,-0.5 -0.5,-0.5 h -1 l -0.5,-0.5 -0.5,-0.5 -0.5,-0.5 -0.5,-0.5 -0.5,-0.5 -0.5,-0.5 -0.5,-0.5 -0.5,-0.5 -0.5,-0.5 -0.5,-0.5 h -1 l -0.5,-0.5 -0.5,-0.5 -0.5,-0.5 -0.5,-0.5 -0.5,-0.5 -0.5,-0.5 -0.5,-0.5 -0.5,-0.5 h -1 l -0.5,-0.5 -0.5,-0.5 -0.5,-0.5 -0.5,-0.5 -0.5,-0.5 -0.5,-0.5 -0.5,-0.5 -0.5,-0.5 h -1 l -0.5,-0.5 -0.5,-0.5 -0.5,-0.5 -0.5,-0.5 -0.5,-0.5 -0.5,-0.5 -0.5,-0.5 -0.5,-0.5 h -1 l -0.5,-0.5 -0.5,-0.5 -0.5,-0.5 -0.5,-0.5 -0.5,-0.5 -0.5,-0.5 h -1 l -0.5,-0.5 -0.5,-0.5 -0.5,-0.5 -0.5,-0.5 -0.5,-0.5 -0.5,-0.5 -0.5,-0.5 -0.5,-0.5 h -1 l -0.5,-0.5 -0.5,-0.5 -0.5,-0.5 -0.5,-0.5 h -1 l -0.5,-0.5 -0.5,-0.5 -0.5,-0.5 -0.5,-0.5 h -1 l -0.5,-0.5 -0.5,-0.5 -0.5,-0.5 -0.5,-0.5 -0.5,-0.5 -0.5,-0.5 h -1 l -0.5,-0.5 -0.5,-0.5 h -1 l -0.5,-0.5 -0.5,-0.5 -0.5,-0.5 -0.5,-0.5 h -1 l -0.5,-0.5 -0.5,-0.5 h -1 l -0.5,-0.5 -0.5,-0.5 h -1 l -0.5,-0.5 -0.5,-0.5 -0.5,-0.5 -0.5,-0.5 h -1 l -0.5,-0.5 -0.5,-0.5 h -1 l -0.5,-0.5 -0.5,-0.5 h -1 l -0.5,-0.5 -0.5,-0.5 h -1 -1 l -0.5,-0.5 -0.5,-0.5 h -1 l -0.5,-0.5 -0.5,-0.5 h -1 l -0.5,-0.5 -0.5,-0.5 h -1 -1 l -0.5,-0.5 -0.5,-0.5 h -1 l -0.5,-0.5 -0.5,-0.5 h -1 -1 l -0.5,-0.5 -0.5,-0.5 h -1 -1 l -0.5,-0.5 -0.5,-0.5 h -1 -1 -1 l -0.5,-0.5 -0.5,-0.5 h -1 -1 l -0.5,-0.5 -0.5,-0.5 h -1 -1 -1 -1 l -0.5,-0.5 -0.5,-0.5 h -1 -1 -1 l -0.5,-0.5 -0.5,-0.5 h -1 -1 -1 -1 -1 l -0.5,-0.5 -0.5,-0.5 h -1 -1 -1 -1 -1 -1 -1 l -0.5,-0.5 -0.5,-0.5 h -1 -1 -1 -1 -1 -1 -1 -1 -1 -1 -1 -1 -1 -1 -1 -1 -1 -1 -1 -1 -1 -1 -1 -1 -1 -1 -1 -1 -1 l -0.5,0.5 -0.5,0.5 h -1 -1 -1 -1 -1 -1 -1 l -0.5,0.5 -0.5,0.5 h -1 -1 -1 -1 -1 l -0.5,0.5 -0.5,0.5 h -1 -1 -1 -1 l -0.5,0.5 -0.5,0.5 h -1 -1 -1 l -0.5,0.5 -0.5,0.5 h -1 -1 -1 l -0.5,0.5 -0.5,0.5 h -1 -1 l -0.5,0.5 -0.5,0.5 h -1 -1 l -0.5,0.5 -0.5,0.5 h -1 -1 l -0.5,0.5 -0.5,0.5 h -1 -1 l -0.5,0.5 -0.5,0.5 h -1 l -0.5,0.5 -0.5,0.5 h -1 l -0.5,0.5 -0.5,0.5 h -1 -1 l -0.5,0.5 -0.5,0.5 h -1 l -0.5,0.5 -0.5,0.5 h -1 l -0.5,0.5 -0.5,0.5 h -1 l -0.5,0.5 -0.5,0.5 h -1 l -0.5,0.5 -0.5,0.5 h -1 l -0.5,0.5 -0.5,0.5 h -1 l -0.5,0.5 -0.5,0.5 h -1 l -0.5,0.5 -0.5,0.5 -0.5,0.5 -0.5,0.5 h -1 l -0.5,0.5 -0.5,0.5 -0.5,0.5 -0.5,0.5 h -1 l -0.5,0.5 -0.5,0.5 h -1 l -0.5,0.5 -0.5,0.5 -0.5,0.5 -0.5,0.5 h -1 l -0.5,0.5 -0.5,0.5 -0.5,0.5 -0.5,0.5 -0.5,0.5 -0.5,0.5 h -1 l -0.5,0.5 -0.5,0.5 -0.5,0.5 -0.5,0.5 -0.5,0.5 -0.5,0.5 h -1 l -0.5,0.5 -0.5,0.5 -0.5,0.5 -0.5,0.5 -0.5,0.5 -0.5,0.5 -0.5,0.5 -0.5,0.5 -0.5,0.5 -0.5,0.5 h -1 l -0.5,0.5 -0.5,0.5 -0.5,0.5 -0.5,0.5 -0.5,0.5 -0.5,0.5 -0.5,0.5 -0.5,0.5 -0.5,0.5 -0.5,0.5 -0.5,0.5 -0.5,0.5 -0.5,0.5 -0.5,0.5 -0.5,0.5 -0.5,0.5 -0.5,0.5 -0.5,0.5 -0.5,0.5 -0.5,0.5 -0.5,0.5 -0.5,0.5 -0.5,0.5 -0.5,0.5 -0.5,0.5 -0.5,0.5 -0.5,0.5 -0.5,0.5 -0.5,0.5 -0.5,0.5 -0.5,0.5 v 1 l -0.5,0.5 -0.5,0.5 -0.5,0.5 -0.5,0.5 -0.5,0.5 -0.5,0.5 -0.5,0.5 -0.5,0.5 -0.5,0.5 -0.5,0.5 v 1 l -0.5,0.5 -0.5,0.5 -0.5,0.5 -0.5,0.5 v 1 l -0.5,0.5 -0.5,0.5 -0.5,0.5 -0.5,0.5 -0.5,0.5 -0.5,0.5 v 1 l -0.5,0.5 -0.5,0.5 -0.5,0.5 -0.5,0.5 v 1 l -0.5,0.5 -0.5,0.5 -0.5,0.5 -0.5,0.5 v 1 l -0.5,0.5 -0.5,0.5 v 1 l -0.5,0.5 -0.5,0.5 v 1 l -0.5,0.5 -0.5,0.5 -0.5,0.5 -0.5,0.5 v 1 l -0.5,0.5 -0.5,0.5 v 1 l -0.5,0.5 -0.5,0.5 v 1 l -0.5,0.5 -0.5,0.5 v 1 l -0.5,0.5 -0.5,0.5 v 1 l -0.5,0.5 -0.5,0.5 v 1 l -0.5,0.5 -0.5,0.5 v 1 1 l -0.5,0.5 -0.5,0.5 v 1 l -0.5,0.5 -0.5,0.5 v 1 1 l -0.5,0.5 -0.5,0.5 v 1 1 l -0.5,0.5 -0.5,0.5 v 1 1 l -0.5,0.5 -0.5,0.5 v 1 1 l -0.5,0.5 -0.5,0.5 v 1 1 1 l -0.5,0.5 -0.5,0.5 v 1 1 l -0.5,0.5 -0.5,0.5 v 1 1 1 1 l -0.5,0.5 -0.5,0.5 v 1 1 1 1 l -0.5,0.5 -0.5,0.5 v 1 1 1 1 1 l -0.5,0.5 -0.5,0.5 v 1 1 1 1 1 1 1 l -0.5,0.5 z"
       fill="#873cea"
       stroke="none"
       id="path865"
       style="display:inline" />
    <path
       d="m 138.5,409 v 1 1 1 1 1 1 1 1 1 l 0.5,0.5 0.5,0.5 v 1 l 0.5,0.5 0.5,0.5 v 1 l 0.5,0.5 0.5,0.5 v 1 l 0.5,0.5 0.5,0.5 0.5,0.5 0.5,0.5 0.5,0.5 0.5,0.5 0.5,0.5 0.5,0.5 0.5,0.5 h 1 l 0.5,0.5 0.5,0.5 h 1 l 0.5,0.5 0.5,0.5 h 1 1 l 0.5,0.5 0.5,0.5 h 1 1 1 1 1 1 l 0.5,-0.5 0.5,-0.5 h 1 1 l 0.5,-0.5 0.5,-0.5 h 1 l 0.5,-0.5 0.5,-0.5 h 1 l 0.5,-0.5 0.5,-0.5 0.5,-0.5 0.5,-0.5 0.5,-0.5 0.5,-0.5 0.5,-0.5 0.5,-0.5 0.5,-0.5 0.5,-0.5 0.5,-0.5 v -1 l 0.5,-0.5 0.5,-0.5 0.5,-0.5 0.5,-0.5 v -1 -1 l 0.5,-0.5 0.5,-0.5 v -1 -1 -1 l 0.5,-0.5 0.5,-0.5 v -1 -1 l 0.5,-0.5 0.5,-0.5 v -1 -1 l 0.5,-0.5 0.5,-0.5 v -1 -1 -1 l 0.5,-0.5 0.5,-0.5 v -1 -1 l 0.5,-0.5 0.5,-0.5 v -1 -1 l 0.5,-0.5 0.5,-0.5 v -1 -1 l 0.5,-0.5 0.5,-0.5 v -1 -1 l 0.5,-0.5 0.5,-0.5 v -1 -1 l 0.5,-0.5 0.5,-0.5 v -1 l 0.5,-0.5 0.5,-0.5 v -1 -1 l 0.5,-0.5 0.5,-0.5 v -1 -1 l 0.5,-0.5 0.5,-0.5 v -1 l 0.5,-0.5 0.5,-0.5 v -1 -1 l 0.5,-0.5 0.5,-0.5 v -1 l 0.5,-0.5 0.5,-0.5 v -1 -1 l 0.5,-0.5 0.5,-0.5 v -1 l 0.5,-0.5 0.5,-0.5 v -1 l 0.5,-0.5 0.5,-0.5 v -1 l 0.5,-0.5 0.5,-0.5 v -1 -1 l 0.5,-0.5 0.5,-0.5 v -1 l 0.5,-0.5 0.5,-0.5 v -1 l 0.5,-0.5 0.5,-0.5 v -1 l 0.5,-0.5 0.5,-0.5 v -1 l 0.5,-0.5 0.5,-0.5 v -1 l 0.5,-0.5 0.5,-0.5 v -1 l 0.5,-0.5 0.5,-0.5 v -1 l 0.5,-0.5 0.5,-0.5 v -1 l 0.5,-0.5 0.5,-0.5 v -1 l 0.5,-0.5 0.5,-0.5 v -1 l 0.5,-0.5 0.5,-0.5 v -1 l 0.5,-0.5 0.5,-0.5 v -1 l 0.5,-0.5 0.5,-0.5 0.5,-0.5 0.5,-0.5 v -1 l 0.5,-0.5 0.5,-0.5 v -1 l 0.5,-0.5 0.5,-0.5 v -1 l 0.5,-0.5 0.5,-0.5 0.5,-0.5 0.5,-0.5 v -1 l 0.5,-0.5 0.5,-0.5 v -1 l 0.5,-0.5 0.5,-0.5 0.5,-0.5 0.5,-0.5 v -1 l 0.5,-0.5 0.5,-0.5 v -1 l 0.5,-0.5 0.5,-0.5 0.5,-0.5 0.5,-0.5 v -1 l 0.5,-0.5 0.5,-0.5 0.5,-0.5 0.5,-0.5 v -1 l 0.5,-0.5 0.5,-0.5 0.5,-0.5 0.5,-0.5 v -1 l 0.5,-0.5 0.5,-0.5 0.5,-0.5 0.5,-0.5 v -1 l 0.5,-0.5 0.5,-0.5 0.5,-0.5 0.5,-0.5 v -1 l 0.5,-0.5 0.5,-0.5 0.5,-0.5 0.5,-0.5 v -1 l 0.5,-0.5 0.5,-0.5 0.5,-0.5 0.5,-0.5 0.5,-0.5 0.5,-0.5 v -1 l 0.5,-0.5 0.5,-0.5 0.5,-0.5 0.5,-0.5 0.5,-0.5 0.5,-0.5 v -1 l 0.5,-0.5 0.5,-0.5 0.5,-0.5 0.5,-0.5 0.5,-0.5 0.5,-0.5 v -1 l 0.5,-0.5 0.5,-0.5 0.5,-0.5 0.5,-0.5 0.5,-0.5 0.5,-0.5 0.5,-0.5 0.5,-0.5 0.5,-0.5 0.5,-0.5 v -1 l 0.5,-0.5 0.5,-0.5 0.5,-0.5 0.5,-0.5 0.5,-0.5 0.5,-0.5 0.5,-0.5 0.5,-0.5 0.5,-0.5 0.5,-0.5 v -1 l 0.5,-0.5 0.5,-0.5 0.5,-0.5 0.5,-0.5 0.5,-0.5 0.5,-0.5 0.5,-0.5 0.5,-0.5 0.5,-0.5 0.5,-0.5 0.5,-0.5 0.5,-0.5 0.5,-0.5 0.5,-0.5 0.5,-0.5 0.5,-0.5 0.5,-0.5 0.5,-0.5 v -1 l 0.5,-0.5 0.5,-0.5 0.5,-0.5 0.5,-0.5 0.5,-0.5 0.5,-0.5 0.5,-0.5 0.5,-0.5 0.5,-0.5 0.5,-0.5 0.5,-0.5 0.5,-0.5 0.5,-0.5 0.5,-0.5 0.5,-0.5 0.5,-0.5 0.5,-0.5 0.5,-0.5 0.5,-0.5 0.5,-0.5 0.5,-0.5 0.5,-0.5 0.5,-0.5 0.5,-0.5 0.5,-0.5 h 1 l 0.5,-0.5 0.5,-0.5 0.5,-0.5 0.5,-0.5 0.5,-0.5 0.5,-0.5 0.5,-0.5 0.5,-0.5 0.5,-0.5 0.5,-0.5 0.5,-0.5 0.5,-0.5 0.5,-0.5 0.5,-0.5 0.5,-0.5 0.5,-0.5 0.5,-0.5 0.5,-0.5 0.5,-0.5 0.5,-0.5 0.5,-0.5 0.5,-0.5 h 1 l 0.5,-0.5 0.5,-0.5 0.5,-0.5 0.5,-0.5 0.5,-0.5 0.5,-0.5 0.5,-0.5 0.5,-0.5 0.5,-0.5 0.5,-0.5 h 1 l 0.5,-0.5 0.5,-0.5 0.5,-0.5 0.5,-0.5 0.5,-0.5 0.5,-0.5 0.5,-0.5 0.5,-0.5 0.5,-0.5 0.5,-0.5 h 1 l 0.5,-0.5 0.5,-0.5 0.5,-0.5 0.5,-0.5 0.5,-0.5 0.5,-0.5 h 1 l 0.5,-0.5 0.5,-0.5 0.5,-0.5 0.5,-0.5 0.5,-0.5 0.5,-0.5 h 1 l 0.5,-0.5 0.5,-0.5 0.5,-0.5 0.5,-0.5 0.5,-0.5 0.5,-0.5 h 1 l 0.5,-0.5 0.5,-0.5 0.5,-0.5 0.5,-0.5 h 1 l 0.5,-0.5 0.5,-0.5 0.5,-0.5 0.5,-0.5 0.5,-0.5 0.5,-0.5 h 1 l 0.5,-0.5 0.5,-0.5 0.5,-0.5 0.5,-0.5 h 1 l 0.5,-0.5 0.5,-0.5 0.5,-0.5 0.5,-0.5 h 1 l 0.5,-0.5 0.5,-0.5 h 1 l 0.5,-0.5 0.5,-0.5 0.5,-0.5 0.5,-0.5 h 1 l 0.5,-0.5 0.5,-0.5 0.5,-0.5 0.5,-0.5 h 1 l 0.5,-0.5 0.5,-0.5 h 1 l 0.5,-0.5 0.5,-0.5 0.5,-0.5 0.5,-0.5 h 1 l 0.5,-0.5 0.5,-0.5 h 1 l 0.5,-0.5 0.5,-0.5 h 1 l 0.5,-0.5 0.5,-0.5 0.5,-0.5 0.5,-0.5 h 1 l 0.5,-0.5 0.5,-0.5 h 1 l 0.5,-0.5 0.5,-0.5 h 1 l 0.5,-0.5 0.5,-0.5 h 1 l 0.5,-0.5 0.5,-0.5 h 1 l 0.5,-0.5 0.5,-0.5 h 1 l 0.5,-0.5 0.5,-0.5 h 1 l 0.5,-0.5 0.5,-0.5 h 1 l 0.5,-0.5 0.5,-0.5 h 1 l 0.5,-0.5 0.5,-0.5 h 1 l 0.5,-0.5 0.5,-0.5 h 1 l 0.5,-0.5 0.5,-0.5 h 1 l 0.5,-0.5 0.5,-0.5 h 1 l 0.5,-0.5 0.5,-0.5 h 1 1 l 0.5,-0.5 0.5,-0.5 h 1 l 0.5,-0.5 0.5,-0.5 h 1 l 0.5,-0.5 0.5,-0.5 h 1 1 l 0.5,-0.5 0.5,-0.5 h 1 l 0.5,-0.5 0.5,-0.5 h 1 1 l 0.5,-0.5 0.5,-0.5 h 1 l 0.5,-0.5 0.5,-0.5 h 1 1 l 0.5,-0.5 0.5,-0.5 h 1 l 0.5,-0.5 0.5,-0.5 h 1 1 l 0.5,-0.5 0.5,-0.5 h 1 1 l 0.5,-0.5 0.5,-0.5 h 1 l 0.5,-0.5 0.5,-0.5 h 1 1 l 0.5,-0.5 0.5,-0.5 h 1 1 l 0.5,-0.5 0.5,-0.5 h 1 1 l 0.5,-0.5 0.5,-0.5 h 1 1 l 0.5,-0.5 0.5,-0.5 h 1 1 1 l 0.5,-0.5 0.5,-0.5 h 1 1 l 0.5,-0.5 0.5,-0.5 h 1 1 l 0.5,-0.5 0.5,-0.5 h 1 l 0.5,-0.5 0.5,-0.5 h 1 l 0.5,-0.5 0.5,-0.5 0.5,-0.5 0.5,-0.5 0.5,-0.5 0.5,-0.5 0.5,-0.5 0.5,-0.5 0.5,-0.5 0.5,-0.5 0.5,-0.5 v -1 l 0.5,-0.5 0.5,-0.5 v -1 l 0.5,-0.5 0.5,-0.5 v -1 -1 -1 -1 -1 -1 -1 -1 -1 -1 -1 l -0.5,-0.5 -0.5,-0.5 v -1 l -0.5,-0.5 -0.5,-0.5 v -1 l -0.5,-0.5 -0.5,-0.5 -0.5,-0.5 -0.5,-0.5 -0.5,-0.5 -0.5,-0.5 -0.5,-0.5 -0.5,-0.5 -0.5,-0.5 -0.5,-0.5 -0.5,-0.5 h -1 l -0.5,-0.5 -0.5,-0.5 h -1 l -0.5,-0.5 -0.5,-0.5 h -1 -1 -1 -1 l -0.5,-0.5 -0.5,-0.5 h -1 -1 l -0.5,0.5 -0.5,0.5 h -1 -1 -1 -1 l -0.5,0.5 -0.5,0.5 h -1 -1 l -0.5,0.5 -0.5,0.5 h -1 -1 l -0.5,0.5 -0.5,0.5 h -1 -1 l -0.5,0.5 -0.5,0.5 h -1 -1 l -0.5,0.5 -0.5,0.5 h -1 l -0.5,0.5 -0.5,0.5 h -1 -1 l -0.5,0.5 -0.5,0.5 h -1 -1 l -0.5,0.5 -0.5,0.5 h -1 -1 l -0.5,0.5 -0.5,0.5 h -1 -1 l -0.5,0.5 -0.5,0.5 h -1 l -0.5,0.5 -0.5,0.5 h -1 -1 l -0.5,0.5 -0.5,0.5 h -1 -1 l -0.5,0.5 -0.5,0.5 h -1 l -0.5,0.5 -0.5,0.5 h -1 -1 l -0.5,0.5 -0.5,0.5 h -1 l -0.5,0.5 -0.5,0.5 h -1 l -0.5,0.5 -0.5,0.5 h -1 -1 l -0.5,0.5 -0.5,0.5 h -1 l -0.5,0.5 -0.5,0.5 h -1 l -0.5,0.5 -0.5,0.5 h -1 -1 l -0.5,0.5 -0.5,0.5 h -1 l -0.5,0.5 -0.5,0.5 h -1 l -0.5,0.5 -0.5,0.5 h -1 l -0.5,0.5 -0.5,0.5 h -1 l -0.5,0.5 -0.5,0.5 h -1 l -0.5,0.5 -0.5,0.5 h -1 l -0.5,0.5 -0.5,0.5 h -1 l -0.5,0.5 -0.5,0.5 h -1 l -0.5,0.5 -0.5,0.5 h -1 l -0.5,0.5 -0.5,0.5 h -1 l -0.5,0.5 -0.5,0.5 h -1 l -0.5,0.5 -0.5,0.5 h -1 l -0.5,0.5 -0.5,0.5 h -1 l -0.5,0.5 -0.5,0.5 -0.5,0.5 -0.5,0.5 h -1 l -0.5,0.5 -0.5,0.5 h -1 l -0.5,0.5 -0.5,0.5 h -1 l -0.5,0.5 -0.5,0.5 h -1 l -0.5,0.5 -0.5,0.5 -0.5,0.5 -0.5,0.5 h -1 l -0.5,0.5 -0.5,0.5 h -1 l -0.5,0.5 -0.5,0.5 -0.5,0.5 -0.5,0.5 h -1 l -0.5,0.5 -0.5,0.5 h -1 l -0.5,0.5 -0.5,0.5 -0.5,0.5 -0.5,0.5 h -1 l -0.5,0.5 -0.5,0.5 -0.5,0.5 -0.5,0.5 h -1 l -0.5,0.5 -0.5,0.5 h -1 l -0.5,0.5 -0.5,0.5 -0.5,0.5 -0.5,0.5 h -1 l -0.5,0.5 -0.5,0.5 -0.5,0.5 -0.5,0.5 -0.5,0.5 -0.5,0.5 h -1 l -0.5,0.5 -0.5,0.5 -0.5,0.5 -0.5,0.5 h -1 l -0.5,0.5 -0.5,0.5 -0.5,0.5 -0.5,0.5 h -1 l -0.5,0.5 -0.5,0.5 -0.5,0.5 -0.5,0.5 -0.5,0.5 -0.5,0.5 h -1 l -0.5,0.5 -0.5,0.5 -0.5,0.5 -0.5,0.5 h -1 l -0.5,0.5 -0.5,0.5 -0.5,0.5 -0.5,0.5 -0.5,0.5 -0.5,0.5 -0.5,0.5 -0.5,0.5 h -1 l -0.5,0.5 -0.5,0.5 -0.5,0.5 -0.5,0.5 -0.5,0.5 -0.5,0.5 h -1 l -0.5,0.5 -0.5,0.5 -0.5,0.5 -0.5,0.5 -0.5,0.5 -0.5,0.5 -0.5,0.5 -0.5,0.5 h -1 l -0.5,0.5 -0.5,0.5 -0.5,0.5 -0.5,0.5 -0.5,0.5 -0.5,0.5 -0.5,0.5 -0.5,0.5 -0.5,0.5 -0.5,0.5 -0.5,0.5 -0.5,0.5 -0.5,0.5 -0.5,0.5 h -1 l -0.5,0.5 -0.5,0.5 -0.5,0.5 -0.5,0.5 -0.5,0.5 -0.5,0.5 -0.5,0.5 -0.5,0.5 -0.5,0.5 -0.5,0.5 -0.5,0.5 -0.5,0.5 -0.5,0.5 -0.5,0.5 h -1 l -0.5,0.5 -0.5,0.5 -0.5,0.5 -0.5,0.5 -0.5,0.5 -0.5,0.5 -0.5,0.5 -0.5,0.5 -0.5,0.5 -0.5,0.5 -0.5,0.5 -0.5,0.5 -0.5,0.5 -0.5,0.5 -0.5,0.5 -0.5,0.5 -0.5,0.5 -0.5,0.5 -0.5,0.5 -0.5,0.5 -0.5,0.5 -0.5,0.5 -0.5,0.5 -0.5,0.5 -0.5,0.5 -0.5,0.5 -0.5,0.5 -0.5,0.5 -0.5,0.5 -0.5,0.5 -0.5,0.5 -0.5,0.5 -0.5,0.5 -0.5,0.5 -0.5,0.5 -0.5,0.5 -0.5,0.5 -0.5,0.5 -0.5,0.5 v 1 l -0.5,0.5 -0.5,0.5 -0.5,0.5 -0.5,0.5 -0.5,0.5 -0.5,0.5 -0.5,0.5 -0.5,0.5 -0.5,0.5 -0.5,0.5 -0.5,0.5 -0.5,0.5 -0.5,0.5 -0.5,0.5 -0.5,0.5 -0.5,0.5 -0.5,0.5 -0.5,0.5 -0.5,0.5 -0.5,0.5 v 1 l -0.5,0.5 -0.5,0.5 -0.5,0.5 -0.5,0.5 -0.5,0.5 -0.5,0.5 -0.5,0.5 -0.5,0.5 -0.5,0.5 -0.5,0.5 v 1 l -0.5,0.5 -0.5,0.5 -0.5,0.5 -0.5,0.5 -0.5,0.5 -0.5,0.5 -0.5,0.5 -0.5,0.5 v 1 l -0.5,0.5 -0.5,0.5 -0.5,0.5 -0.5,0.5 -0.5,0.5 -0.5,0.5 v 1 l -0.5,0.5 -0.5,0.5 -0.5,0.5 -0.5,0.5 -0.5,0.5 -0.5,0.5 -0.5,0.5 -0.5,0.5 v 1 l -0.5,0.5 -0.5,0.5 -0.5,0.5 -0.5,0.5 v 1 l -0.5,0.5 -0.5,0.5 -0.5,0.5 -0.5,0.5 -0.5,0.5 -0.5,0.5 v 1 l -0.5,0.5 -0.5,0.5 -0.5,0.5 -0.5,0.5 v 1 l -0.5,0.5 -0.5,0.5 -0.5,0.5 -0.5,0.5 v 1 l -0.5,0.5 -0.5,0.5 -0.5,0.5 -0.5,0.5 v 1 l -0.5,0.5 -0.5,0.5 -0.5,0.5 -0.5,0.5 v 1 l -0.5,0.5 -0.5,0.5 v 1 l -0.5,0.5 -0.5,0.5 -0.5,0.5 -0.5,0.5 v 1 l -0.5,0.5 -0.5,0.5 -0.5,0.5 -0.5,0.5 v 1 l -0.5,0.5 -0.5,0.5 v 1 l -0.5,0.5 -0.5,0.5 -0.5,0.5 -0.5,0.5 v 1 l -0.5,0.5 -0.5,0.5 v 1 l -0.5,0.5 -0.5,0.5 v 1 l -0.5,0.5 -0.5,0.5 -0.5,0.5 -0.5,0.5 v 1 l -0.5,0.5 -0.5,0.5 v 1 l -0.5,0.5 -0.5,0.5 v 1 l -0.5,0.5 -0.5,0.5 v 1 l -0.5,0.5 -0.5,0.5 -0.5,0.5 -0.5,0.5 v 1 l -0.5,0.5 -0.5,0.5 v 1 l -0.5,0.5 -0.5,0.5 v 1 l -0.5,0.5 -0.5,0.5 v 1 l -0.5,0.5 -0.5,0.5 v 1 l -0.5,0.5 -0.5,0.5 v 1 l -0.5,0.5 -0.5,0.5 v 1 l -0.5,0.5 -0.5,0.5 v 1 1 l -0.5,0.5 -0.5,0.5 v 1 l -0.5,0.5 -0.5,0.5 v 1 l -0.5,0.5 -0.5,0.5 v 1 l -0.5,0.5 -0.5,0.5 v 1 l -0.5,0.5 -0.5,0.5 v 1 1 l -0.5,0.5 -0.5,0.5 v 1 l -0.5,0.5 -0.5,0.5 v 1 l -0.5,0.5 -0.5,0.5 v 1 1 l -0.5,0.5 -0.5,0.5 v 1 l -0.5,0.5 -0.5,0.5 v 1 1 l -0.5,0.5 -0.5,0.5 v 1 l -0.5,0.5 -0.5,0.5 v 1 1 l -0.5,0.5 -0.5,0.5 v 1 1 l -0.5,0.5 -0.5,0.5 v 1 1 l -0.5,0.5 -0.5,0.5 v 1 l -0.5,0.5 -0.5,0.5 v 1 1 l -0.5,0.5 -0.5,0.5 v 1 1 l -0.5,0.5 -0.5,0.5 v 1 1 l -0.5,0.5 -0.5,0.5 v 1 1 l -0.5,0.5 -0.5,0.5 v 1 1 1 l -0.5,0.5 -0.5,0.5 v 1 1 l -0.5,0.5 -0.5,0.5 v 1 1 1 l -0.5,0.5 -0.5,0.5 v 1 1 l -0.5,0.5 -0.5,0.5 v 1 1 l -0.5,0.5 z"
       fill="#000000"
       stroke="none"
       id="path871" />
    <path
       d="m 138.5,600 v 1 1 1 1 1 1 1 1 1 l 0.5,0.5 0.5,0.5 v 1 1 1 l 0.5,0.5 0.5,0.5 v 1 1 l 0.5,0.5 0.5,0.5 v 1 1 l 0.5,0.5 0.5,0.5 v 1 1 1 l 0.5,0.5 0.5,0.5 v 1 1 l 0.5,0.5 0.5,0.5 v 1 1 l 0.5,0.5 0.5,0.5 v 1 1 l 0.5,0.5 0.5,0.5 v 1 1 l 0.5,0.5 0.5,0.5 v 1 1 l 0.5,0.5 0.5,0.5 v 1 1 l 0.5,0.5 0.5,0.5 v 1 1 l 0.5,0.5 0.5,0.5 v 1 l 0.5,0.5 0.5,0.5 v 1 1 l 0.5,0.5 0.5,0.5 v 1 l 0.5,0.5 0.5,0.5 v 1 1 l 0.5,0.5 0.5,0.5 v 1 1 l 0.5,0.5 0.5,0.5 v 1 l 0.5,0.5 0.5,0.5 v 1 l 0.5,0.5 0.5,0.5 v 1 l 0.5,0.5 0.5,0.5 v 1 1 l 0.5,0.5 0.5,0.5 v 1 l 0.5,0.5 0.5,0.5 v 1 l 0.5,0.5 0.5,0.5 v 1 l 0.5,0.5 0.5,0.5 v 1 l 0.5,0.5 0.5,0.5 v 1 l 0.5,0.5 0.5,0.5 v 1 l 0.5,0.5 0.5,0.5 v 1 l 0.5,0.5 0.5,0.5 v 1 l 0.5,0.5 0.5,0.5 v 1 l 0.5,0.5 0.5,0.5 v 1 l 0.5,0.5 0.5,0.5 v 1 l 0.5,0.5 0.5,0.5 v 1 l 0.5,0.5 0.5,0.5 v 1 l 0.5,0.5 0.5,0.5 0.5,0.5 0.5,0.5 v 1 l 0.5,0.5 0.5,0.5 v 1 l 0.5,0.5 0.5,0.5 v 1 l 0.5,0.5 0.5,0.5 v 1 l 0.5,0.5 0.5,0.5 0.5,0.5 0.5,0.5 v 1 l 0.5,0.5 0.5,0.5 v 1 l 0.5,0.5 0.5,0.5 0.5,0.5 0.5,0.5 v 1 l 0.5,0.5 0.5,0.5 v 1 l 0.5,0.5 0.5,0.5 0.5,0.5 0.5,0.5 v 1 l 0.5,0.5 0.5,0.5 0.5,0.5 0.5,0.5 v 1 l 0.5,0.5 0.5,0.5 0.5,0.5 0.5,0.5 v 1 l 0.5,0.5 0.5,0.5 0.5,0.5 0.5,0.5 v 1 l 0.5,0.5 0.5,0.5 0.5,0.5 0.5,0.5 v 1 l 0.5,0.5 0.5,0.5 0.5,0.5 0.5,0.5 v 1 l 0.5,0.5 0.5,0.5 0.5,0.5 0.5,0.5 v 1 l 0.5,0.5 0.5,0.5 0.5,0.5 0.5,0.5 0.5,0.5 0.5,0.5 v 1 l 0.5,0.5 0.5,0.5 0.5,0.5 0.5,0.5 0.5,0.5 0.5,0.5 v 1 l 0.5,0.5 0.5,0.5 0.5,0.5 0.5,0.5 0.5,0.5 0.5,0.5 v 1 l 0.5,0.5 0.5,0.5 0.5,0.5 0.5,0.5 0.5,0.5 0.5,0.5 0.5,0.5 0.5,0.5 v 1 l 0.5,0.5 0.5,0.5 0.5,0.5 0.5,0.5 0.5,0.5 0.5,0.5 0.5,0.5 0.5,0.5 v 1 l 0.5,0.5 0.5,0.5 0.5,0.5 0.5,0.5 0.5,0.5 0.5,0.5 0.5,0.5 0.5,0.5 0.5,0.5 0.5,0.5 0.5,0.5 0.5,0.5 v 1 l 0.5,0.5 0.5,0.5 0.5,0.5 0.5,0.5 0.5,0.5 0.5,0.5 0.5,0.5 0.5,0.5 0.5,0.5 0.5,0.5 0.5,0.5 0.5,0.5 0.5,0.5 0.5,0.5 0.5,0.5 0.5,0.5 0.5,0.5 0.5,0.5 v 1 l 0.5,0.5 0.5,0.5 0.5,0.5 0.5,0.5 0.5,0.5 0.5,0.5 0.5,0.5 0.5,0.5 0.5,0.5 0.5,0.5 0.5,0.5 0.5,0.5 0.5,0.5 0.5,0.5 0.5,0.5 0.5,0.5 0.5,0.5 0.5,0.5 0.5,0.5 0.5,0.5 0.5,0.5 0.5,0.5 0.5,0.5 0.5,0.5 0.5,0.5 0.5,0.5 0.5,0.5 0.5,0.5 0.5,0.5 0.5,0.5 0.5,0.5 0.5,0.5 0.5,0.5 0.5,0.5 0.5,0.5 0.5,0.5 0.5,0.5 0.5,0.5 0.5,0.5 h 1 l 0.5,0.5 0.5,0.5 0.5,0.5 0.5,0.5 0.5,0.5 0.5,0.5 0.5,0.5 0.5,0.5 0.5,0.5 0.5,0.5 0.5,0.5 0.5,0.5 0.5,0.5 0.5,0.5 0.5,0.5 0.5,0.5 h 1 l 0.5,0.5 0.5,0.5 0.5,0.5 0.5,0.5 0.5,0.5 0.5,0.5 0.5,0.5 0.5,0.5 0.5,0.5 0.5,0.5 h 1 l 0.5,0.5 0.5,0.5 0.5,0.5 0.5,0.5 0.5,0.5 0.5,0.5 0.5,0.5 0.5,0.5 h 1 l 0.5,0.5 0.5,0.5 0.5,0.5 0.5,0.5 0.5,0.5 0.5,0.5 0.5,0.5 0.5,0.5 h 1 l 0.5,0.5 0.5,0.5 0.5,0.5 0.5,0.5 0.5,0.5 0.5,0.5 h 1 l 0.5,-0.5 0.5,-0.5 0.5,0.5 -0.5,0.5 -0.5,0.5 0.5,0.5 0.5,0.5 0.5,0.5 0.5,0.5 0.5,0.5 h 1 l 0.5,0.5 0.5,0.5 0.5,0.5 0.5,0.5 0.5,0.5 0.5,0.5 h 1 l 0.5,0.5 0.5,0.5 0.5,0.5 0.5,0.5 h 1 l 0.5,0.5 0.5,0.5 0.5,0.5 0.5,0.5 h 1 l 0.5,0.5 0.5,0.5 0.5,0.5 0.5,0.5 h 1 l 0.5,0.5 0.5,0.5 0.5,0.5 0.5,0.5 h 1 l 0.5,0.5 0.5,0.5 0.5,0.5 0.5,0.5 h 1 l 0.5,0.5 0.5,0.5 0.5,0.5 0.5,0.5 h 1 l 0.5,0.5 0.5,0.5 0.5,0.5 0.5,0.5 h 1 l 0.5,0.5 0.5,0.5 h 1 l 0.5,0.5 0.5,0.5 0.5,0.5 0.5,0.5 h 1 l 0.5,0.5 0.5,0.5 h 1 l 0.5,0.5 0.5,0.5 h 1 l 0.5,0.5 0.5,0.5 0.5,0.5 0.5,0.5 h 1 l 0.5,0.5 0.5,0.5 h 1 l 0.5,0.5 0.5,0.5 h 1 l 0.5,0.5 0.5,0.5 0.5,0.5 0.5,0.5 h 1 l 0.5,0.5 0.5,0.5 h 1 l 0.5,0.5 0.5,0.5 h 1 l 0.5,0.5 0.5,0.5 h 1 l 0.5,0.5 0.5,0.5 h 1 l 0.5,0.5 0.5,0.5 h 1 l 0.5,0.5 0.5,0.5 h 1 l 0.5,0.5 0.5,0.5 h 1 l 0.5,0.5 0.5,0.5 h 1 l 0.5,0.5 0.5,0.5 h 1 l 0.5,0.5 0.5,0.5 h 1 l 0.5,0.5 0.5,0.5 h 1 1 l 0.5,0.5 0.5,0.5 h 1 l 0.5,0.5 0.5,0.5 h 1 l 0.5,0.5 0.5,0.5 h 1 l 0.5,0.5 0.5,0.5 h 1 1 l 0.5,0.5 0.5,0.5 h 1 l 0.5,0.5 0.5,0.5 h 1 1 l 0.5,0.5 0.5,0.5 h 1 l 0.5,0.5 0.5,0.5 h 1 1 l 0.5,0.5 0.5,0.5 h 1 l 0.5,0.5 0.5,0.5 h 1 1 l 0.5,0.5 0.5,0.5 h 1 l 0.5,0.5 0.5,0.5 h 1 1 l 0.5,0.5 0.5,0.5 h 1 1 l 0.5,0.5 0.5,0.5 h 1 1 l 0.5,0.5 0.5,0.5 h 1 1 l 0.5,0.5 0.5,0.5 h 1 1 l 0.5,0.5 0.5,0.5 h 1 1 l 0.5,0.5 0.5,0.5 h 1 1 l 0.5,0.5 0.5,0.5 h 1 1 l 0.5,0.5 0.5,0.5 h 1 1 l 0.5,0.5 0.5,0.5 h 1 1 1 1 l 0.5,0.5 0.5,0.5 0.5,-0.5 0.5,-0.5 h 1 1 1 1 1 l 0.5,-0.5 0.5,-0.5 h 1 l 0.5,-0.5 0.5,-0.5 h 1 l 0.5,-0.5 0.5,-0.5 0.5,-0.5 0.5,-0.5 0.5,-0.5 0.5,-0.5 0.5,-0.5 0.5,-0.5 0.5,-0.5 0.5,-0.5 0.5,-0.5 v -1 l 0.5,-0.5 0.5,-0.5 v -1 l 0.5,-0.5 0.5,-0.5 v -1 -1 -1 -1 -1 -1 -1 -1 -1 -1 l -0.5,-0.5 -0.5,-0.5 v -1 -1 l -0.5,-0.5 -0.5,-0.5 -0.5,-0.5 -0.5,-0.5 v -1 l -0.5,-0.5 -0.5,-0.5 -0.5,-0.5 -0.5,-0.5 -0.5,-0.5 -0.5,-0.5 -0.5,-0.5 h -1 l -0.5,-0.5 -0.5,-0.5 -0.5,-0.5 -0.5,-0.5 h -1 l -0.5,-0.5 -0.5,-0.5 h -1 -1 l -0.5,-0.5 -0.5,-0.5 h -1 -1 -1 l -0.5,-0.5 -0.5,-0.5 h -1 -1 l -0.5,-0.5 -0.5,-0.5 h -1 -1 l -0.5,-0.5 -0.5,-0.5 h -1 -1 l -0.5,-0.5 -0.5,-0.5 h -1 l -0.5,-0.5 -0.5,-0.5 h -1 -1 l -0.5,-0.5 -0.5,-0.5 h -1 -1 l -0.5,-0.5 -0.5,-0.5 h -1 -1 l -0.5,-0.5 -0.5,-0.5 h -1 l -0.5,-0.5 -0.5,-0.5 h -1 -1 l -0.5,-0.5 -0.5,-0.5 h -1 -1 l -0.5,-0.5 -0.5,-0.5 h -1 l -0.5,-0.5 -0.5,-0.5 h -1 -1 l -0.5,-0.5 -0.5,-0.5 h -1 l -0.5,-0.5 -0.5,-0.5 h -1 l -0.5,-0.5 -0.5,-0.5 h -1 -1 l -0.5,-0.5 -0.5,-0.5 h -1 l -0.5,-0.5 -0.5,-0.5 h -1 l -0.5,-0.5 -0.5,-0.5 h -1 l -0.5,-0.5 -0.5,-0.5 h -1 -1 l -0.5,-0.5 -0.5,-0.5 h -1 l -0.5,-0.5 -0.5,-0.5 h -1 l -0.5,-0.5 -0.5,-0.5 h -1 l -0.5,-0.5 -0.5,-0.5 h -1 l -0.5,-0.5 -0.5,-0.5 h -1 l -0.5,-0.5 -0.5,-0.5 h -1 l -0.5,-0.5 -0.5,-0.5 h -1 l -0.5,-0.5 -0.5,-0.5 h -1 l -0.5,-0.5 -0.5,-0.5 -0.5,-0.5 -0.5,-0.5 h -1 l -0.5,-0.5 -0.5,-0.5 h -1 l -0.5,-0.5 -0.5,-0.5 h -1 l -0.5,-0.5 -0.5,-0.5 h -1 l -0.5,-0.5 -0.5,-0.5 -0.5,-0.5 -0.5,-0.5 h -1 l -0.5,-0.5 -0.5,-0.5 h -1 l -0.5,-0.5 -0.5,-0.5 -0.5,-0.5 -0.5,-0.5 h -1 l -0.5,-0.5 -0.5,-0.5 h -1 l -0.5,-0.5 -0.5,-0.5 -0.5,-0.5 -0.5,-0.5 h -1 l -0.5,-0.5 -0.5,-0.5 -0.5,-0.5 -0.5,-0.5 h -1 l -0.5,-0.5 -0.5,-0.5 -0.5,-0.5 -0.5,-0.5 h -1 l -0.5,-0.5 -0.5,-0.5 -0.5,-0.5 -0.5,-0.5 h -1 l -0.5,-0.5 -0.5,-0.5 -0.5,-0.5 -0.5,-0.5 h -1 l -0.5,-0.5 -0.5,-0.5 -0.5,-0.5 -0.5,-0.5 h -1 l -0.5,-0.5 -0.5,-0.5 -0.5,-0.5 -0.5,-0.5 -0.5,-0.5 -0.5,-0.5 h -1 l -0.5,-0.5 -0.5,-0.5 -0.5,-0.5 -0.5,-0.5 -0.5,-0.5 -0.5,-0.5 h -1 l -0.5,-0.5 -0.5,-0.5 -0.5,-0.5 -0.5,-0.5 -0.5,-0.5 -0.5,-0.5 -0.5,-0.5 -0.5,-0.5 h -1 l -0.5,-0.5 -0.5,-0.5 -0.5,-0.5 -0.5,-0.5 -0.5,-0.5 -0.5,-0.5 -0.5,-0.5 -0.5,-0.5 h -1 l -0.5,-0.5 -0.5,-0.5 -0.5,-0.5 -0.5,-0.5 -0.5,-0.5 -0.5,-0.5 -0.5,-0.5 -0.5,-0.5 -0.5,-0.5 -0.5,-0.5 -0.5,-0.5 -0.5,-0.5 h -1 l -0.5,-0.5 -0.5,-0.5 -0.5,-0.5 -0.5,-0.5 -0.5,-0.5 -0.5,-0.5 -0.5,-0.5 -0.5,-0.5 -0.5,-0.5 -0.5,-0.5 -0.5,-0.5 -0.5,-0.5 -0.5,-0.5 -0.5,-0.5 -0.5,-0.5 -0.5,-0.5 -0.5,-0.5 -0.5,-0.5 -0.5,-0.5 -0.5,-0.5 -0.5,-0.5 -0.5,-0.5 h -1 l -0.5,-0.5 -0.5,-0.5 -0.5,-0.5 -0.5,-0.5 -0.5,-0.5 -0.5,-0.5 -0.5,-0.5 -0.5,-0.5 -0.5,-0.5 -0.5,-0.5 -0.5,-0.5 -0.5,-0.5 -0.5,-0.5 -0.5,-0.5 -0.5,-0.5 -0.5,-0.5 -0.5,-0.5 -0.5,-0.5 -0.5,-0.5 -0.5,-0.5 -0.5,-0.5 v -1 l -0.5,-0.5 -0.5,-0.5 -0.5,-0.5 -0.5,-0.5 -0.5,-0.5 -0.5,-0.5 -0.5,-0.5 -0.5,-0.5 -0.5,-0.5 -0.5,-0.5 -0.5,-0.5 -0.5,-0.5 -0.5,-0.5 -0.5,-0.5 -0.5,-0.5 -0.5,-0.5 -0.5,-0.5 -0.5,-0.5 -0.5,-0.5 -0.5,-0.5 -0.5,-0.5 -0.5,-0.5 v -1 l -0.5,-0.5 -0.5,-0.5 -0.5,-0.5 -0.5,-0.5 -0.5,-0.5 -0.5,-0.5 -0.5,-0.5 -0.5,-0.5 -0.5,-0.5 -0.5,-0.5 -0.5,-0.5 -0.5,-0.5 v -1 l -0.5,-0.5 -0.5,-0.5 -0.5,-0.5 -0.5,-0.5 -0.5,-0.5 -0.5,-0.5 -0.5,-0.5 -0.5,-0.5 v -1 l -0.5,-0.5 -0.5,-0.5 -0.5,-0.5 -0.5,-0.5 -0.5,-0.5 -0.5,-0.5 -0.5,-0.5 -0.5,-0.5 v -1 l -0.5,-0.5 -0.5,-0.5 -0.5,-0.5 -0.5,-0.5 -0.5,-0.5 -0.5,-0.5 v -1 l -0.5,-0.5 -0.5,-0.5 -0.5,-0.5 -0.5,-0.5 -0.5,-0.5 -0.5,-0.5 v -1 l -0.5,-0.5 -0.5,-0.5 -0.5,-0.5 -0.5,-0.5 v -1 l -0.5,-0.5 -0.5,-0.5 -0.5,-0.5 -0.5,-0.5 v -1 l -0.5,-0.5 -0.5,-0.5 -0.5,-0.5 -0.5,-0.5 -0.5,-0.5 -0.5,-0.5 v -1 l -0.5,-0.5 -0.5,-0.5 -0.5,-0.5 -0.5,-0.5 v -1 l -0.5,-0.5 -0.5,-0.5 v -1 l -0.5,-0.5 -0.5,-0.5 -0.5,-0.5 -0.5,-0.5 v -1 l -0.5,-0.5 -0.5,-0.5 -0.5,-0.5 -0.5,-0.5 v -1 l -0.5,-0.5 -0.5,-0.5 v -1 l -0.5,-0.5 -0.5,-0.5 -0.5,-0.5 -0.5,-0.5 v -1 l -0.5,-0.5 -0.5,-0.5 v -1 l -0.5,-0.5 -0.5,-0.5 -0.5,-0.5 -0.5,-0.5 v -1 l -0.5,-0.5 -0.5,-0.5 v -1 l -0.5,-0.5 -0.5,-0.5 v -1 l -0.5,-0.5 -0.5,-0.5 -0.5,-0.5 -0.5,-0.5 v -1 l -0.5,-0.5 -0.5,-0.5 v -1 l -0.5,-0.5 -0.5,-0.5 v -1 l -0.5,-0.5 -0.5,-0.5 v -1 l -0.5,-0.5 -0.5,-0.5 v -1 l -0.5,-0.5 -0.5,-0.5 v -1 l -0.5,-0.5 -0.5,-0.5 v -1 l -0.5,-0.5 -0.5,-0.5 v -1 l -0.5,-0.5 -0.5,-0.5 v -1 l -0.5,-0.5 -0.5,-0.5 v -1 l -0.5,-0.5 -0.5,-0.5 v -1 l -0.5,-0.5 -0.5,-0.5 v -1 -1 l -0.5,-0.5 -0.5,-0.5 v -1 l -0.5,-0.5 -0.5,-0.5 v -1 l -0.5,-0.5 -0.5,-0.5 v -1 l -0.5,-0.5 -0.5,-0.5 v -1 -1 l -0.5,-0.5 -0.5,-0.5 v -1 l -0.5,-0.5 -0.5,-0.5 v -1 -1 l -0.5,-0.5 -0.5,-0.5 v -1 l -0.5,-0.5 -0.5,-0.5 v -1 -1 l -0.5,-0.5 -0.5,-0.5 v -1 -1 l -0.5,-0.5 -0.5,-0.5 v -1 l -0.5,-0.5 -0.5,-0.5 v -1 -1 l -0.5,-0.5 -0.5,-0.5 v -1 -1 l -0.5,-0.5 -0.5,-0.5 v -1 -1 l -0.5,-0.5 -0.5,-0.5 v -1 -1 l -0.5,-0.5 -0.5,-0.5 v -1 -1 l -0.5,-0.5 -0.5,-0.5 v -1 -1 l -0.5,-0.5 -0.5,-0.5 v -1 -1 -1 l -0.5,-0.5 -0.5,-0.5 v -1 -1 l -0.5,-0.5 -0.5,-0.5 v -1 -1 l -0.5,-0.5 -0.5,-0.5 v -1 -1 l -0.5,-0.5 -0.5,-0.5 -0.5,-0.5 -0.5,-0.5 v -1 l -0.5,-0.5 -0.5,-0.5 -0.5,-0.5 -0.5,-0.5 -0.5,-0.5 -0.5,-0.5 -0.5,-0.5 h -1 l -0.5,-0.5 -0.5,-0.5 -0.5,-0.5 -0.5,-0.5 h -1 -1 l -0.5,-0.5 -0.5,-0.5 h -1 -1 -1 -1 l -0.5,-0.5 -0.5,-0.5 h -1 l -0.5,0.5 -0.5,0.5 h -1 -1 -1 -1 l -0.5,0.5 -0.5,0.5 h -1 l -0.5,0.5 -0.5,0.5 -0.5,0.5 -0.5,0.5 h -1 l -0.5,0.5 -0.5,0.5 -0.5,0.5 -0.5,0.5 -0.5,0.5 -0.5,0.5 -0.5,0.5 v 1 l -0.5,0.5 -0.5,0.5 v 1 l -0.5,0.5 -0.5,0.5 v 1 l -0.5,0.5 z"
       fill="#000000"
       stroke="none"
       id="path873" />
    <path
       d="m 217.5,260 0.5,-0.5 0.5,0.5 -0.5,0.5 z"
       fill="#000000"
       stroke="none"
       id="path875" />
    <path
       d="m 529.5,659 v 1 1 1 1 1 l 0.5,0.5 0.5,0.5 0.5,0.5 h 1 l 0.5,0.5 0.5,0.5 h 1 l 0.5,0.5 0.5,0.5 h 1 l 0.5,0.5 0.5,0.5 h 1 l 0.5,0.5 0.5,0.5 h 1 1 l 0.5,0.5 0.5,0.5 h 1 1 1 l 0.5,0.5 0.5,0.5 h 1 1 1 l 0.5,0.5 0.5,0.5 h 1 1 1 1 l 0.5,0.5 0.5,0.5 h 1 1 1 1 1 1 1 l 0.5,0.5 0.5,0.5 h 1 1 1 1 1 1 1 1 1 1 1 1 1 1 1 1 1 1 1 1 l 0.5,-0.5 0.5,-0.5 h 1 1 1 1 1 1 1 l 0.5,-0.5 0.5,-0.5 h 1 1 1 l 0.5,-0.5 0.5,-0.5 h 1 1 1 l 0.5,-0.5 0.5,-0.5 h 1 1 l 0.5,-0.5 0.5,-0.5 h 1 1 l 0.5,-0.5 0.5,-0.5 h 1 1 l 0.5,-0.5 0.5,-0.5 h 1 l 0.5,-0.5 0.5,-0.5 h 1 1 l 0.5,-0.5 0.5,-0.5 h 1 l 0.5,-0.5 0.5,-0.5 h 1 l 0.5,-0.5 0.5,-0.5 h 1 l 0.5,-0.5 0.5,-0.5 h 1 l 0.5,-0.5 0.5,-0.5 0.5,-0.5 0.5,-0.5 h 1 l 0.5,-0.5 0.5,-0.5 h 1 l 0.5,-0.5 0.5,-0.5 0.5,-0.5 0.5,-0.5 h 1 l 0.5,-0.5 0.5,-0.5 0.5,-0.5 0.5,-0.5 0.5,-0.5 0.5,-0.5 h 1 l 0.5,-0.5 0.5,-0.5 0.5,-0.5 0.5,-0.5 0.5,-0.5 0.5,-0.5 h 1 l 0.5,-0.5 0.5,-0.5 0.5,-0.5 0.5,-0.5 0.5,-0.5 0.5,-0.5 0.5,-0.5 0.5,-0.5 h 1 l 0.5,-0.5 0.5,-0.5 0.5,-0.5 0.5,-0.5 0.5,-0.5 0.5,-0.5 0.5,-0.5 0.5,-0.5 0.5,-0.5 0.5,-0.5 0.5,-0.5 0.5,-0.5 h 1 l 0.5,-0.5 0.5,-0.5 0.5,-0.5 0.5,-0.5 0.5,-0.5 0.5,-0.5 0.5,-0.5 0.5,-0.5 0.5,-0.5 0.5,-0.5 0.5,-0.5 0.5,-0.5 h 1 l 0.5,-0.5 0.5,-0.5 0.5,-0.5 0.5,-0.5 0.5,-0.5 0.5,-0.5 0.5,-0.5 0.5,-0.5 0.5,-0.5 0.5,-0.5 h 1 l 0.5,-0.5 0.5,-0.5 0.5,-0.5 0.5,-0.5 0.5,-0.5 0.5,-0.5 0.5,-0.5 0.5,-0.5 0.5,-0.5 0.5,-0.5 0.5,-0.5 0.5,-0.5 h 1 l 0.5,-0.5 0.5,-0.5 0.5,-0.5 0.5,-0.5 0.5,-0.5 0.5,-0.5 0.5,-0.5 0.5,-0.5 0.5,-0.5 0.5,-0.5 0.5,-0.5 0.5,-0.5 h 1 l 0.5,-0.5 0.5,-0.5 0.5,-0.5 0.5,-0.5 0.5,-0.5 0.5,-0.5 0.5,-0.5 0.5,-0.5 0.5,-0.5 0.5,-0.5 0.5,-0.5 0.5,-0.5 0.5,-0.5 0.5,-0.5 h 1 l 0.5,-0.5 0.5,-0.5 0.5,-0.5 0.5,-0.5 0.5,-0.5 0.5,-0.5 0.5,-0.5 0.5,-0.5 0.5,-0.5 0.5,-0.5 0.5,-0.5 0.5,-0.5 h 1 l 0.5,-0.5 0.5,-0.5 0.5,-0.5 0.5,-0.5 0.5,-0.5 0.5,-0.5 0.5,-0.5 0.5,-0.5 0.5,-0.5 0.5,-0.5 0.5,-0.5 0.5,-0.5 0.5,-0.5 0.5,-0.5 h 1 l 0.5,-0.5 0.5,-0.5 0.5,-0.5 0.5,-0.5 0.5,-0.5 0.5,-0.5 0.5,-0.5 0.5,-0.5 0.5,-0.5 0.5,-0.5 0.5,-0.5 0.5,-0.5 0.5,-0.5 0.5,-0.5 h 1 l 0.5,-0.5 0.5,-0.5 0.5,-0.5 0.5,-0.5 0.5,-0.5 0.5,-0.5 0.5,-0.5 0.5,-0.5 0.5,-0.5 0.5,-0.5 0.5,-0.5 0.5,-0.5 0.5,-0.5 0.5,-0.5 h 1 l 0.5,-0.5 0.5,-0.5 0.5,-0.5 0.5,-0.5 0.5,-0.5 0.5,-0.5 0.5,-0.5 0.5,-0.5 0.5,-0.5 0.5,-0.5 0.5,-0.5 0.5,-0.5 0.5,-0.5 0.5,-0.5 0.5,-0.5 0.5,-0.5 h 1 l 0.5,-0.5 0.5,-0.5 0.5,-0.5 0.5,-0.5 0.5,-0.5 0.5,-0.5 0.5,-0.5 0.5,-0.5 0.5,-0.5 0.5,-0.5 0.5,-0.5 0.5,-0.5 0.5,-0.5 0.5,-0.5 h 1 l 0.5,-0.5 0.5,-0.5 0.5,-0.5 0.5,-0.5 0.5,-0.5 0.5,-0.5 0.5,-0.5 0.5,-0.5 0.5,-0.5 0.5,-0.5 0.5,-0.5 0.5,-0.5 0.5,-0.5 0.5,-0.5 h 1 l 0.5,-0.5 0.5,-0.5 0.5,-0.5 0.5,-0.5 0.5,-0.5 0.5,-0.5 0.5,-0.5 0.5,-0.5 0.5,-0.5 0.5,-0.5 0.5,-0.5 0.5,-0.5 0.5,-0.5 0.5,-0.5 0.5,-0.5 0.5,-0.5 h 1 l 0.5,-0.5 0.5,-0.5 0.5,-0.5 0.5,-0.5 0.5,-0.5 0.5,-0.5 0.5,-0.5 0.5,-0.5 0.5,-0.5 0.5,-0.5 0.5,-0.5 0.5,-0.5 0.5,-0.5 0.5,-0.5 0.5,-0.5 0.5,-0.5 h 1 l 0.5,-0.5 0.5,-0.5 0.5,-0.5 0.5,-0.5 0.5,-0.5 0.5,-0.5 0.5,-0.5 0.5,-0.5 0.5,-0.5 0.5,-0.5 0.5,-0.5 0.5,-0.5 0.5,-0.5 0.5,-0.5 h 1 l 0.5,-0.5 0.5,-0.5 0.5,-0.5 0.5,-0.5 0.5,-0.5 0.5,-0.5 0.5,-0.5 0.5,-0.5 0.5,-0.5 0.5,-0.5 0.5,-0.5 0.5,-0.5 0.5,-0.5 0.5,-0.5 0.5,-0.5 0.5,-0.5 h 1 l 0.5,-0.5 0.5,-0.5 0.5,-0.5 0.5,-0.5 0.5,-0.5 0.5,-0.5 0.5,-0.5 0.5,-0.5 0.5,-0.5 0.5,-0.5 0.5,-0.5 0.5,-0.5 0.5,-0.5 0.5,-0.5 0.5,-0.5 -0.5,-0.5 -0.5,-0.5 0.5,-0.5 0.5,0.5 0.5,0.5 h 1 l 0.5,-0.5 0.5,-0.5 0.5,-0.5 0.5,-0.5 0.5,-0.5 0.5,-0.5 0.5,-0.5 0.5,-0.5 0.5,-0.5 0.5,-0.5 0.5,-0.5 0.5,-0.5 0.5,-0.5 0.5,-0.5 0.5,-0.5 0.5,-0.5 h 1 l 0.5,-0.5 0.5,-0.5 0.5,-0.5 v -1 -1 l 0.5,-0.5 0.5,-0.5 v -1 l -0.5,-0.5 -0.5,-0.5 v -1 -1 l -0.5,-0.5 -0.5,-0.5 -0.5,-0.5 -0.5,-0.5 -0.5,-0.5 -0.5,-0.5 -0.5,-0.5 -0.5,-0.5 -0.5,-0.5 -0.5,-0.5 -0.5,-0.5 -0.5,-0.5 -0.5,-0.5 -0.5,-0.5 -0.5,-0.5 h -1 l -0.5,-0.5 -0.5,-0.5 -0.5,-0.5 -0.5,-0.5 -0.5,-0.5 -0.5,-0.5 -0.5,-0.5 -0.5,-0.5 -0.5,-0.5 -0.5,-0.5 -0.5,-0.5 -0.5,-0.5 -0.5,-0.5 -0.5,-0.5 h -1 l -0.5,-0.5 -0.5,-0.5 -0.5,-0.5 -0.5,-0.5 -0.5,-0.5 -0.5,-0.5 -0.5,-0.5 -0.5,-0.5 -0.5,-0.5 -0.5,-0.5 -0.5,-0.5 -0.5,-0.5 -0.5,-0.5 -0.5,-0.5 h -1 l -0.5,-0.5 -0.5,-0.5 -0.5,-0.5 -0.5,-0.5 -0.5,-0.5 -0.5,-0.5 -0.5,-0.5 -0.5,-0.5 -0.5,-0.5 -0.5,-0.5 -0.5,-0.5 -0.5,-0.5 -0.5,-0.5 -0.5,-0.5 h -1 l -0.5,-0.5 -0.5,-0.5 -0.5,-0.5 -0.5,-0.5 -0.5,-0.5 -0.5,-0.5 -0.5,-0.5 -0.5,-0.5 -0.5,-0.5 -0.5,-0.5 -0.5,-0.5 -0.5,-0.5 -0.5,-0.5 -0.5,-0.5 -0.5,-0.5 -0.5,-0.5 h -1 l -0.5,-0.5 -0.5,-0.5 -0.5,-0.5 -0.5,-0.5 -0.5,-0.5 -0.5,-0.5 -0.5,-0.5 -0.5,-0.5 -0.5,-0.5 -0.5,-0.5 -0.5,-0.5 -0.5,-0.5 -0.5,-0.5 -0.5,-0.5 h -1 l -0.5,-0.5 -0.5,-0.5 -0.5,-0.5 -0.5,-0.5 -0.5,-0.5 -0.5,-0.5 -0.5,-0.5 -0.5,-0.5 -0.5,-0.5 -0.5,-0.5 -0.5,-0.5 -0.5,-0.5 -0.5,-0.5 -0.5,-0.5 h -1 l -0.5,-0.5 -0.5,-0.5 -0.5,-0.5 -0.5,-0.5 -0.5,-0.5 -0.5,-0.5 -0.5,-0.5 -0.5,-0.5 -0.5,-0.5 -0.5,-0.5 -0.5,-0.5 -0.5,-0.5 -0.5,-0.5 -0.5,-0.5 h -1 l -0.5,-0.5 -0.5,-0.5 -0.5,-0.5 -0.5,-0.5 -0.5,-0.5 -0.5,-0.5 -0.5,-0.5 -0.5,-0.5 -0.5,-0.5 -0.5,-0.5 -0.5,-0.5 -0.5,-0.5 -0.5,-0.5 -0.5,-0.5 h -1 l -0.5,-0.5 -0.5,-0.5 -0.5,-0.5 -0.5,-0.5 -0.5,-0.5 -0.5,-0.5 -0.5,-0.5 -0.5,-0.5 -0.5,-0.5 -0.5,-0.5 -0.5,-0.5 -0.5,-0.5 -0.5,-0.5 -0.5,-0.5 -0.5,-0.5 -0.5,-0.5 h -1 l -0.5,-0.5 -0.5,-0.5 -0.5,-0.5 -0.5,-0.5 -0.5,-0.5 -0.5,-0.5 -0.5,-0.5 -0.5,-0.5 -0.5,-0.5 -0.5,-0.5 -0.5,-0.5 -0.5,-0.5 -0.5,-0.5 -0.5,-0.5 -0.5,-0.5 -0.5,-0.5 h -1 l -0.5,-0.5 -0.5,-0.5 -0.5,-0.5 -0.5,-0.5 -0.5,-0.5 -0.5,-0.5 -0.5,-0.5 -0.5,-0.5 -0.5,-0.5 -0.5,-0.5 -0.5,-0.5 -0.5,-0.5 h -1 l -0.5,-0.5 -0.5,-0.5 -0.5,-0.5 -0.5,-0.5 -0.5,-0.5 -0.5,-0.5 -0.5,-0.5 -0.5,-0.5 -0.5,-0.5 -0.5,-0.5 -0.5,-0.5 -0.5,-0.5 -0.5,-0.5 -0.5,-0.5 h -1 l -0.5,-0.5 -0.5,-0.5 -0.5,-0.5 -0.5,-0.5 -0.5,-0.5 -0.5,-0.5 -0.5,-0.5 -0.5,-0.5 -0.5,-0.5 -0.5,-0.5 -0.5,-0.5 -0.5,-0.5 -0.5,-0.5 -0.5,-0.5 -0.5,-0.5 -0.5,-0.5 h -1 l -0.5,-0.5 -0.5,-0.5 -0.5,-0.5 -0.5,-0.5 -0.5,-0.5 -0.5,-0.5 -0.5,-0.5 -0.5,-0.5 -0.5,-0.5 -0.5,-0.5 -0.5,-0.5 -0.5,-0.5 h -1 l -0.5,-0.5 -0.5,-0.5 -0.5,-0.5 -0.5,-0.5 -0.5,-0.5 -0.5,-0.5 -0.5,-0.5 -0.5,-0.5 -0.5,-0.5 -0.5,-0.5 -0.5,-0.5 -0.5,-0.5 h -1 l -0.5,-0.5 -0.5,-0.5 -0.5,-0.5 -0.5,-0.5 -0.5,-0.5 -0.5,-0.5 -0.5,-0.5 -0.5,-0.5 -0.5,-0.5 -0.5,-0.5 -0.5,-0.5 -0.5,-0.5 -0.5,-0.5 -0.5,-0.5 h -1 l -0.5,-0.5 -0.5,-0.5 -0.5,-0.5 -0.5,-0.5 -0.5,-0.5 -0.5,-0.5 -0.5,-0.5 -0.5,-0.5 -0.5,-0.5 -0.5,-0.5 -0.5,-0.5 -0.5,-0.5 h -1 l -0.5,-0.5 -0.5,-0.5 -0.5,-0.5 -0.5,-0.5 -0.5,-0.5 -0.5,-0.5 -0.5,-0.5 -0.5,-0.5 -0.5,-0.5 -0.5,-0.5 -0.5,-0.5 -0.5,-0.5 h -1 l -0.5,-0.5 -0.5,-0.5 -0.5,-0.5 -0.5,-0.5 -0.5,-0.5 -0.5,-0.5 -0.5,-0.5 -0.5,-0.5 -0.5,-0.5 -0.5,-0.5 h -1 l -0.5,-0.5 -0.5,-0.5 -0.5,-0.5 -0.5,-0.5 -0.5,-0.5 -0.5,-0.5 -0.5,-0.5 -0.5,-0.5 h -1 l -0.5,-0.5 -0.5,-0.5 -0.5,-0.5 -0.5,-0.5 h -1 l -0.5,-0.5 -0.5,-0.5 -0.5,-0.5 -0.5,-0.5 h -1 l -0.5,-0.5 -0.5,-0.5 -0.5,-0.5 -0.5,-0.5 h -1 l -0.5,-0.5 -0.5,-0.5 h -1 l -0.5,-0.5 -0.5,-0.5 h -1 l -0.5,-0.5 -0.5,-0.5 h -1 l -0.5,-0.5 -0.5,-0.5 h -1 l -0.5,-0.5 -0.5,-0.5 h -1 l -0.5,-0.5 -0.5,-0.5 h -1 l -0.5,-0.5 -0.5,-0.5 h -1 l -0.5,-0.5 -0.5,-0.5 h -1 -1 l -0.5,-0.5 -0.5,-0.5 h -1 -1 l -0.5,-0.5 -0.5,-0.5 h -1 -1 l -0.5,-0.5 -0.5,-0.5 h -1 -1 -1 l -0.5,-0.5 -0.5,-0.5 h -1 -1 -1 -1 l -0.5,-0.5 -0.5,-0.5 h -1 -1 -1 -1 -1 -1 -1 -1 -1 l -0.5,-0.5 -0.5,-0.5 h -1 -1 -1 -1 -1 -1 -1 -1 -1 -1 l -0.5,0.5 -0.5,0.5 h -1 -1 -1 -1 -1 -1 -1 -1 -1 -1 -1 l -0.5,0.5 -0.5,0.5 h -1 -1 -1 -1 -1 l -0.5,0.5 -0.5,0.5 h -1 -1 -1 l -0.5,0.5 -0.5,0.5 h -1 -1 -1 l -0.5,0.5 -0.5,0.5 h -1 -1 l -0.5,0.5 -0.5,0.5 h -1 l -0.5,0.5 -0.5,0.5 h -1 -1 l -0.5,0.5 -0.5,0.5 h -1 l -0.5,0.5 -0.5,0.5 h -1 l -0.5,0.5 -0.5,0.5 -0.5,0.5 v 1 1 1 1 1 l 0.5,0.5 0.5,0.5 0.5,0.5 0.5,0.5 0.5,0.5 0.5,0.5 0.5,0.5 0.5,0.5 0.5,0.5 0.5,0.5 0.5,0.5 h 1 l 0.5,0.5 0.5,0.5 0.5,0.5 0.5,0.5 0.5,0.5 0.5,0.5 0.5,0.5 0.5,0.5 0.5,0.5 0.5,0.5 h 1 l 0.5,0.5 0.5,0.5 0.5,0.5 0.5,0.5 0.5,0.5 0.5,0.5 0.5,0.5 0.5,0.5 0.5,0.5 0.5,0.5 h 1 l 0.5,0.5 0.5,0.5 0.5,0.5 0.5,0.5 0.5,0.5 0.5,0.5 0.5,0.5 0.5,0.5 0.5,0.5 0.5,0.5 h 1 l 0.5,0.5 0.5,0.5 0.5,0.5 0.5,0.5 0.5,0.5 0.5,0.5 0.5,0.5 0.5,0.5 0.5,0.5 0.5,0.5 0.5,0.5 0.5,0.5 h 1 l 0.5,0.5 0.5,0.5 0.5,0.5 0.5,0.5 0.5,0.5 0.5,0.5 0.5,0.5 0.5,0.5 0.5,0.5 0.5,0.5 h 1 l 0.5,0.5 0.5,0.5 0.5,0.5 0.5,0.5 0.5,0.5 0.5,0.5 0.5,0.5 0.5,0.5 0.5,0.5 0.5,0.5 0.5,0.5 0.5,0.5 h 1 l 0.5,0.5 0.5,0.5 0.5,0.5 0.5,0.5 0.5,0.5 0.5,0.5 0.5,0.5 0.5,0.5 0.5,0.5 0.5,0.5 0.5,0.5 0.5,0.5 h 1 l 0.5,0.5 0.5,0.5 0.5,0.5 0.5,0.5 0.5,0.5 0.5,0.5 0.5,0.5 0.5,0.5 0.5,0.5 0.5,0.5 h 1 l 0.5,0.5 0.5,0.5 0.5,0.5 0.5,0.5 0.5,0.5 0.5,0.5 0.5,0.5 0.5,0.5 0.5,0.5 0.5,0.5 0.5,0.5 0.5,0.5 h 1 l 0.5,0.5 0.5,0.5 0.5,0.5 0.5,0.5 0.5,0.5 0.5,0.5 0.5,0.5 0.5,0.5 0.5,0.5 0.5,0.5 0.5,0.5 0.5,0.5 0.5,0.5 0.5,0.5 h 1 l 0.5,0.5 0.5,0.5 0.5,0.5 0.5,0.5 0.5,0.5 0.5,0.5 0.5,0.5 0.5,0.5 0.5,0.5 0.5,0.5 0.5,0.5 0.5,0.5 h 1 l 0.5,0.5 0.5,0.5 0.5,0.5 0.5,0.5 0.5,0.5 0.5,0.5 0.5,0.5 0.5,0.5 0.5,0.5 0.5,0.5 0.5,0.5 0.5,0.5 h 1 l 0.5,0.5 0.5,0.5 0.5,0.5 0.5,0.5 0.5,0.5 0.5,0.5 0.5,0.5 0.5,0.5 0.5,0.5 0.5,0.5 0.5,0.5 0.5,0.5 0.5,0.5 0.5,0.5 h 1 l 0.5,0.5 0.5,0.5 0.5,0.5 0.5,0.5 0.5,0.5 0.5,0.5 0.5,0.5 0.5,0.5 0.5,0.5 0.5,0.5 0.5,0.5 0.5,0.5 0.5,0.5 0.5,0.5 h 1 l 0.5,0.5 0.5,0.5 0.5,0.5 0.5,0.5 0.5,0.5 0.5,0.5 0.5,0.5 0.5,0.5 0.5,0.5 0.5,0.5 0.5,0.5 0.5,0.5 0.5,0.5 0.5,0.5 0.5,0.5 0.5,0.5 h 1 l 0.5,0.5 0.5,0.5 0.5,0.5 0.5,0.5 0.5,0.5 0.5,0.5 0.5,0.5 0.5,0.5 0.5,0.5 0.5,0.5 0.5,0.5 0.5,0.5 0.5,0.5 0.5,0.5 0.5,0.5 0.5,0.5 h 1 l 0.5,0.5 0.5,0.5 0.5,0.5 0.5,0.5 0.5,0.5 0.5,0.5 0.5,0.5 0.5,0.5 0.5,0.5 0.5,0.5 0.5,0.5 0.5,0.5 0.5,0.5 0.5,0.5 0.5,0.5 0.5,0.5 0.5,0.5 0.5,0.5 0.5,0.5 0.5,0.5 h 1 l 0.5,0.5 0.5,0.5 0.5,0.5 0.5,0.5 0.5,0.5 0.5,0.5 0.5,0.5 0.5,0.5 0.5,0.5 0.5,0.5 0.5,0.5 0.5,0.5 0.5,0.5 0.5,0.5 0.5,0.5 0.5,0.5 0.5,0.5 0.5,0.5 0.5,0.5 0.5,0.5 0.5,0.5 0.5,0.5 h 1 l 0.5,0.5 0.5,0.5 0.5,0.5 0.5,0.5 0.5,0.5 0.5,0.5 0.5,0.5 0.5,0.5 0.5,0.5 0.5,0.5 0.5,0.5 0.5,0.5 0.5,0.5 0.5,0.5 0.5,0.5 0.5,0.5 0.5,0.5 0.5,0.5 0.5,0.5 0.5,0.5 0.5,0.5 0.5,0.5 0.5,0.5 0.5,0.5 0.5,0.5 0.5,0.5 h 1 l 0.5,-0.5 0.5,-0.5 0.5,0.5 -0.5,0.5 -0.5,0.5 0.5,0.5 0.5,0.5 0.5,0.5 0.5,0.5 0.5,0.5 0.5,0.5 0.5,0.5 0.5,0.5 0.5,0.5 0.5,0.5 0.5,0.5 0.5,0.5 0.5,0.5 0.5,0.5 0.5,0.5 0.5,0.5 0.5,0.5 0.5,0.5 v 1 1 l -0.5,0.5 -0.5,0.5 v 1 1 l -0.5,0.5 -0.5,0.5 -0.5,0.5 -0.5,0.5 -0.5,0.5 -0.5,0.5 -0.5,0.5 -0.5,0.5 -0.5,0.5 -0.5,0.5 -0.5,0.5 -0.5,0.5 -0.5,0.5 -0.5,0.5 -0.5,0.5 -0.5,0.5 -0.5,0.5 -0.5,0.5 -0.5,0.5 -0.5,0.5 -0.5,0.5 h -1 l -0.5,0.5 -0.5,0.5 -0.5,0.5 -0.5,0.5 -0.5,0.5 -0.5,0.5 -0.5,0.5 -0.5,0.5 -0.5,0.5 -0.5,0.5 -0.5,0.5 -0.5,0.5 -0.5,0.5 -0.5,0.5 -0.5,0.5 -0.5,0.5 -0.5,0.5 -0.5,0.5 -0.5,0.5 -0.5,0.5 -0.5,0.5 -0.5,0.5 -0.5,0.5 -0.5,0.5 -0.5,0.5 -0.5,0.5 -0.5,0.5 -0.5,0.5 h -1 l -0.5,0.5 -0.5,0.5 -0.5,0.5 -0.5,0.5 -0.5,0.5 -0.5,0.5 -0.5,0.5 -0.5,0.5 -0.5,0.5 -0.5,0.5 -0.5,0.5 -0.5,0.5 -0.5,0.5 -0.5,0.5 -0.5,0.5 -0.5,0.5 -0.5,0.5 -0.5,0.5 -0.5,0.5 -0.5,0.5 -0.5,0.5 -0.5,0.5 h -1 l -0.5,0.5 -0.5,0.5 -0.5,0.5 -0.5,0.5 -0.5,0.5 -0.5,0.5 -0.5,0.5 -0.5,0.5 -0.5,0.5 -0.5,0.5 -0.5,0.5 -0.5,0.5 -0.5,0.5 -0.5,0.5 -0.5,0.5 -0.5,0.5 -0.5,0.5 -0.5,0.5 h -1 l -0.5,0.5 -0.5,0.5 -0.5,0.5 -0.5,0.5 -0.5,0.5 -0.5,0.5 -0.5,0.5 -0.5,0.5 -0.5,0.5 -0.5,0.5 -0.5,0.5 -0.5,0.5 -0.5,0.5 -0.5,0.5 h -1 l -0.5,0.5 -0.5,0.5 -0.5,0.5 -0.5,0.5 -0.5,0.5 -0.5,0.5 -0.5,0.5 -0.5,0.5 -0.5,0.5 -0.5,0.5 -0.5,0.5 -0.5,0.5 -0.5,0.5 -0.5,0.5 -0.5,0.5 -0.5,0.5 h -1 l -0.5,0.5 -0.5,0.5 -0.5,0.5 -0.5,0.5 -0.5,0.5 -0.5,0.5 -0.5,0.5 -0.5,0.5 -0.5,0.5 -0.5,0.5 -0.5,0.5 -0.5,0.5 -0.5,0.5 -0.5,0.5 h -1 l -0.5,0.5 -0.5,0.5 -0.5,0.5 -0.5,0.5 -0.5,0.5 -0.5,0.5 -0.5,0.5 -0.5,0.5 -0.5,0.5 -0.5,0.5 -0.5,0.5 -0.5,0.5 h -1 l -0.5,0.5 -0.5,0.5 -0.5,0.5 -0.5,0.5 -0.5,0.5 -0.5,0.5 -0.5,0.5 -0.5,0.5 -0.5,0.5 -0.5,0.5 -0.5,0.5 -0.5,0.5 h -1 l -0.5,0.5 -0.5,0.5 -0.5,0.5 -0.5,0.5 -0.5,0.5 -0.5,0.5 -0.5,0.5 -0.5,0.5 -0.5,0.5 -0.5,0.5 -0.5,0.5 -0.5,0.5 h -1 l -0.5,0.5 -0.5,0.5 -0.5,0.5 -0.5,0.5 -0.5,0.5 -0.5,0.5 -0.5,0.5 -0.5,0.5 -0.5,0.5 -0.5,0.5 h -1 l -0.5,0.5 -0.5,0.5 -0.5,0.5 -0.5,0.5 -0.5,0.5 -0.5,0.5 -0.5,0.5 -0.5,0.5 -0.5,0.5 -0.5,0.5 -0.5,0.5 -0.5,0.5 h -1 l -0.5,0.5 -0.5,0.5 -0.5,0.5 -0.5,0.5 -0.5,0.5 -0.5,0.5 -0.5,0.5 -0.5,0.5 -0.5,0.5 -0.5,0.5 -0.5,0.5 -0.5,0.5 h -1 l -0.5,0.5 -0.5,0.5 -0.5,0.5 -0.5,0.5 -0.5,0.5 -0.5,0.5 -0.5,0.5 -0.5,0.5 -0.5,0.5 -0.5,0.5 h -1 l -0.5,0.5 -0.5,0.5 -0.5,0.5 -0.5,0.5 -0.5,0.5 -0.5,0.5 -0.5,0.5 -0.5,0.5 -0.5,0.5 -0.5,0.5 -0.5,0.5 -0.5,0.5 h -1 l -0.5,0.5 -0.5,0.5 -0.5,0.5 -0.5,0.5 -0.5,0.5 -0.5,0.5 -0.5,0.5 -0.5,0.5 -0.5,0.5 -0.5,0.5 h -1 l -0.5,0.5 -0.5,0.5 -0.5,0.5 -0.5,0.5 -0.5,0.5 -0.5,0.5 -0.5,0.5 -0.5,0.5 -0.5,0.5 -0.5,0.5 h -1 l -0.5,0.5 -0.5,0.5 -0.5,0.5 -0.5,0.5 -0.5,0.5 -0.5,0.5 -0.5,0.5 -0.5,0.5 -0.5,0.5 -0.5,0.5 h -1 l -0.5,0.5 -0.5,0.5 -0.5,0.5 -0.5,0.5 -0.5,0.5 -0.5,0.5 -0.5,0.5 -0.5,0.5 -0.5,0.5 -0.5,0.5 h -1 l -0.5,0.5 -0.5,0.5 -0.5,0.5 -0.5,0.5 -0.5,0.5 -0.5,0.5 -0.5,0.5 -0.5,0.5 -0.5,0.5 -0.5,0.5 h -1 l -0.5,0.5 -0.5,0.5 -0.5,0.5 -0.5,0.5 -0.5,0.5 -0.5,0.5 -0.5,0.5 -0.5,0.5 -0.5,0.5 -0.5,0.5 h -1 l -0.5,0.5 -0.5,0.5 -0.5,0.5 -0.5,0.5 -0.5,0.5 -0.5,0.5 z"
       fill="#000000"
       stroke="none"
       id="path889" />
    <path
       d="m 584.5,153 v 1 1 1 1 1 1 1 1 1 l 0.5,0.5 0.5,0.5 v 1 1 l 0.5,0.5 0.5,0.5 0.5,0.5 0.5,0.5 v 1 l 0.5,0.5 0.5,0.5 0.5,0.5 0.5,0.5 0.5,0.5 0.5,0.5 0.5,0.5 0.5,0.5 0.5,0.5 h 1 l 0.5,0.5 0.5,0.5 h 1 l 0.5,0.5 0.5,0.5 h 1 l 0.5,0.5 0.5,0.5 h 1 1 1 l 0.5,0.5 0.5,0.5 h 1 1 l 0.5,0.5 0.5,0.5 h 1 1 l 0.5,0.5 0.5,0.5 h 1 1 l 0.5,0.5 0.5,0.5 h 1 1 l 0.5,0.5 0.5,0.5 h 1 1 l 0.5,0.5 0.5,0.5 h 1 1 l 0.5,0.5 0.5,0.5 h 1 1 l 0.5,0.5 0.5,0.5 h 1 1 l 0.5,0.5 0.5,0.5 h 1 l 0.5,0.5 0.5,0.5 h 1 1 l 0.5,0.5 0.5,0.5 h 1 1 l 0.5,0.5 0.5,0.5 h 1 l 0.5,0.5 0.5,0.5 h 1 1 l 0.5,0.5 0.5,0.5 h 1 l 0.5,0.5 0.5,0.5 h 1 l 0.5,0.5 0.5,0.5 h 1 1 l 0.5,0.5 0.5,0.5 h 1 l 0.5,0.5 0.5,0.5 h 1 l 0.5,0.5 0.5,0.5 h 1 l 0.5,0.5 0.5,0.5 h 1 1 l 0.5,0.5 0.5,0.5 h 1 l 0.5,0.5 0.5,0.5 h 1 l 0.5,0.5 0.5,0.5 h 1 l 0.5,0.5 0.5,0.5 h 1 l 0.5,0.5 0.5,0.5 h 1 l 0.5,0.5 0.5,0.5 0.5,0.5 0.5,0.5 h 1 l 0.5,0.5 0.5,0.5 h 1 l 0.5,0.5 0.5,0.5 h 1 l 0.5,0.5 0.5,0.5 h 1 l 0.5,0.5 0.5,0.5 h 1 l 0.5,0.5 0.5,0.5 0.5,0.5 0.5,0.5 h 1 l 0.5,0.5 0.5,0.5 h 1 l 0.5,0.5 0.5,0.5 0.5,0.5 0.5,0.5 h 1 l 0.5,0.5 0.5,0.5 h 1 l 0.5,0.5 0.5,0.5 0.5,0.5 0.5,0.5 h 1 l 0.5,0.5 0.5,0.5 h 1 l 0.5,0.5 0.5,0.5 0.5,0.5 0.5,0.5 h 1 l 0.5,0.5 0.5,0.5 0.5,0.5 0.5,0.5 h 1 l 0.5,0.5 0.5,0.5 0.5,0.5 0.5,0.5 h 1 l 0.5,0.5 0.5,0.5 0.5,0.5 0.5,0.5 h 1 l 0.5,0.5 0.5,0.5 0.5,0.5 0.5,0.5 h 1 l 0.5,0.5 0.5,0.5 0.5,0.5 0.5,0.5 0.5,0.5 0.5,0.5 h 1 l 0.5,0.5 0.5,0.5 0.5,0.5 0.5,0.5 0.5,0.5 0.5,0.5 h 1 l 0.5,0.5 0.5,0.5 0.5,0.5 0.5,0.5 0.5,0.5 0.5,0.5 h 1 l 0.5,0.5 0.5,0.5 0.5,0.5 0.5,0.5 0.5,0.5 0.5,0.5 h 1 l 0.5,0.5 0.5,0.5 0.5,0.5 0.5,0.5 0.5,0.5 0.5,0.5 0.5,0.5 0.5,0.5 0.5,0.5 0.5,0.5 h 1 l 0.5,0.5 0.5,0.5 0.5,0.5 0.5,0.5 0.5,0.5 0.5,0.5 0.5,0.5 0.5,0.5 0.5,0.5 0.5,0.5 h 1 l 0.5,0.5 0.5,0.5 0.5,0.5 0.5,0.5 0.5,0.5 0.5,0.5 0.5,0.5 0.5,0.5 0.5,0.5 0.5,0.5 0.5,0.5 0.5,0.5 0.5,0.5 0.5,0.5 0.5,0.5 0.5,0.5 0.5,0.5 0.5,0.5 0.5,0.5 0.5,0.5 h 1 l 0.5,0.5 0.5,0.5 0.5,0.5 0.5,0.5 0.5,0.5 0.5,0.5 0.5,0.5 0.5,0.5 0.5,0.5 0.5,0.5 0.5,0.5 0.5,0.5 0.5,0.5 0.5,0.5 0.5,0.5 0.5,0.5 0.5,0.5 0.5,0.5 0.5,0.5 0.5,0.5 0.5,0.5 0.5,0.5 0.5,0.5 0.5,0.5 0.5,0.5 0.5,0.5 0.5,0.5 0.5,0.5 0.5,0.5 v 1 l 0.5,0.5 0.5,0.5 0.5,0.5 0.5,0.5 0.5,0.5 0.5,0.5 0.5,0.5 0.5,0.5 0.5,0.5 0.5,0.5 0.5,0.5 0.5,0.5 0.5,0.5 0.5,0.5 0.5,0.5 0.5,0.5 0.5,0.5 0.5,0.5 v 1 l 0.5,0.5 0.5,0.5 0.5,0.5 0.5,0.5 0.5,0.5 0.5,0.5 0.5,0.5 0.5,0.5 0.5,0.5 0.5,0.5 0.5,0.5 0.5,0.5 v 1 l 0.5,0.5 0.5,0.5 0.5,0.5 0.5,0.5 0.5,0.5 0.5,0.5 0.5,0.5 0.5,0.5 v 1 l 0.5,0.5 0.5,0.5 0.5,0.5 0.5,0.5 0.5,0.5 0.5,0.5 v 1 l 0.5,0.5 0.5,0.5 0.5,0.5 0.5,0.5 0.5,0.5 0.5,0.5 0.5,0.5 0.5,0.5 v 1 l 0.5,0.5 0.5,0.5 0.5,0.5 0.5,0.5 v 1 l 0.5,0.5 0.5,0.5 0.5,0.5 0.5,0.5 0.5,0.5 0.5,0.5 v 1 l 0.5,0.5 0.5,0.5 0.5,0.5 0.5,0.5 v 1 l 0.5,0.5 0.5,0.5 0.5,0.5 0.5,0.5 v 1 l 0.5,0.5 0.5,0.5 0.5,0.5 0.5,0.5 v 1 l 0.5,0.5 0.5,0.5 0.5,0.5 0.5,0.5 v 1 l 0.5,0.5 0.5,0.5 0.5,0.5 0.5,0.5 v 1 l 0.5,0.5 0.5,0.5 0.5,0.5 0.5,0.5 v 1 l 0.5,0.5 0.5,0.5 v 1 l 0.5,0.5 0.5,0.5 0.5,0.5 0.5,0.5 v 1 l 0.5,0.5 0.5,0.5 v 1 l 0.5,0.5 0.5,0.5 0.5,0.5 0.5,0.5 v 1 l 0.5,0.5 0.5,0.5 v 1 l 0.5,0.5 0.5,0.5 v 1 l 0.5,0.5 0.5,0.5 v 1 l 0.5,0.5 0.5,0.5 v 1 l 0.5,0.5 0.5,0.5 v 1 l 0.5,0.5 0.5,0.5 v 1 l 0.5,0.5 0.5,0.5 v 1 l 0.5,0.5 0.5,0.5 v 1 l 0.5,0.5 0.5,0.5 v 1 l 0.5,0.5 0.5,0.5 v 1 l 0.5,0.5 0.5,0.5 v 1 l 0.5,0.5 0.5,0.5 v 1 l 0.5,0.5 0.5,0.5 v 1 l 0.5,0.5 0.5,0.5 v 1 1 l 0.5,0.5 0.5,0.5 v 1 l 0.5,0.5 0.5,0.5 v 1 l 0.5,0.5 0.5,0.5 v 1 1 l 0.5,0.5 0.5,0.5 v 1 l 0.5,0.5 0.5,0.5 v 1 1 l 0.5,0.5 0.5,0.5 v 1 l 0.5,0.5 0.5,0.5 v 1 1 l 0.5,0.5 0.5,0.5 v 1 1 l 0.5,0.5 0.5,0.5 v 1 1 l 0.5,0.5 0.5,0.5 v 1 1 l 0.5,0.5 0.5,0.5 v 1 1 l 0.5,0.5 0.5,0.5 v 1 1 l 0.5,0.5 0.5,0.5 v 1 1 l 0.5,0.5 0.5,0.5 v 1 1 l 0.5,0.5 0.5,0.5 v 1 1 l 0.5,0.5 0.5,0.5 v 1 1 1 l 0.5,0.5 0.5,0.5 v 1 1 l 0.5,0.5 0.5,0.5 v 1 1 l 0.5,0.5 0.5,0.5 v 1 l 0.5,0.5 0.5,0.5 v 1 l 0.5,0.5 0.5,0.5 0.5,0.5 0.5,0.5 0.5,0.5 0.5,0.5 0.5,0.5 0.5,0.5 0.5,0.5 0.5,0.5 0.5,0.5 h 1 l 0.5,0.5 0.5,0.5 h 1 l 0.5,0.5 0.5,0.5 h 1 1 l 0.5,0.5 0.5,0.5 h 1 1 1 1 1 1 1 l 0.5,-0.5 0.5,-0.5 h 1 1 l 0.5,-0.5 0.5,-0.5 h 1 l 0.5,-0.5 0.5,-0.5 0.5,-0.5 0.5,-0.5 h 1 l 0.5,-0.5 0.5,-0.5 0.5,-0.5 0.5,-0.5 0.5,-0.5 v -1 l 0.5,-0.5 0.5,-0.5 0.5,-0.5 0.5,-0.5 v -1 l 0.5,-0.5 0.5,-0.5 v -1 -1 l 0.5,-0.5 0.5,-0.5 v -1 -1 -1 -1 -1 -1 -1 l -0.5,-0.5 -0.5,-0.5 v -1 -1 -1 l -0.5,-0.5 -0.5,-0.5 v -1 -1 -1 l -0.5,-0.5 -0.5,-0.5 v -1 -1 l -0.5,-0.5 -0.5,-0.5 v -1 -1 l -0.5,-0.5 -0.5,-0.5 v -1 -1 l -0.5,-0.5 -0.5,-0.5 v -1 -1 l -0.5,-0.5 -0.5,-0.5 v -1 -1 l -0.5,-0.5 -0.5,-0.5 v -1 -1 l -0.5,-0.5 -0.5,-0.5 v -1 -1 l -0.5,-0.5 -0.5,-0.5 v -1 -1 l -0.5,-0.5 -0.5,-0.5 v -1 l -0.5,-0.5 -0.5,-0.5 v -1 -1 l -0.5,-0.5 -0.5,-0.5 v -1 -1 l -0.5,-0.5 -0.5,-0.5 v -1 l -0.5,-0.5 -0.5,-0.5 v -1 -1 l -0.5,-0.5 -0.5,-0.5 v -1 l -0.5,-0.5 -0.5,-0.5 v -1 l -0.5,-0.5 -0.5,-0.5 v -1 -1 l -0.5,-0.5 -0.5,-0.5 v -1 l -0.5,-0.5 -0.5,-0.5 v -1 l -0.5,-0.5 -0.5,-0.5 v -1 l -0.5,-0.5 -0.5,-0.5 v -1 l -0.5,-0.5 -0.5,-0.5 v -1 -1 l -0.5,-0.5 -0.5,-0.5 v -1 l -0.5,-0.5 -0.5,-0.5 v -1 l -0.5,-0.5 -0.5,-0.5 v -1 l -0.5,-0.5 -0.5,-0.5 v -1 l -0.5,-0.5 -0.5,-0.5 v -1 l -0.5,-0.5 -0.5,-0.5 v -1 l -0.5,-0.5 -0.5,-0.5 -0.5,-0.5 -0.5,-0.5 v -1 l -0.5,-0.5 -0.5,-0.5 v -1 l -0.5,-0.5 -0.5,-0.5 v -1 l -0.5,-0.5 -0.5,-0.5 v -1 l -0.5,-0.5 -0.5,-0.5 v -1 l -0.5,-0.5 -0.5,-0.5 -0.5,-0.5 -0.5,-0.5 v -1 l -0.5,-0.5 -0.5,-0.5 v -1 l -0.5,-0.5 -0.5,-0.5 v -1 l -0.5,-0.5 -0.5,-0.5 -0.5,-0.5 -0.5,-0.5 v -1 l -0.5,-0.5 -0.5,-0.5 v -1 l -0.5,-0.5 -0.5,-0.5 -0.5,-0.5 -0.5,-0.5 v -1 l -0.5,-0.5 -0.5,-0.5 -0.5,-0.5 -0.5,-0.5 v -1 l -0.5,-0.5 -0.5,-0.5 v -1 l -0.5,-0.5 -0.5,-0.5 -0.5,-0.5 -0.5,-0.5 v -1 l -0.5,-0.5 -0.5,-0.5 -0.5,-0.5 -0.5,-0.5 v -1 l -0.5,-0.5 -0.5,-0.5 -0.5,-0.5 -0.5,-0.5 v -1 l -0.5,-0.5 -0.5,-0.5 -0.5,-0.5 -0.5,-0.5 -0.5,-0.5 -0.5,-0.5 v -1 l -0.5,-0.5 -0.5,-0.5 -0.5,-0.5 -0.5,-0.5 v -1 l -0.5,-0.5 -0.5,-0.5 -0.5,-0.5 -0.5,-0.5 -0.5,-0.5 -0.5,-0.5 v -1 l -0.5,-0.5 -0.5,-0.5 -0.5,-0.5 -0.5,-0.5 -0.5,-0.5 -0.5,-0.5 v -1 l -0.5,-0.5 -0.5,-0.5 -0.5,-0.5 -0.5,-0.5 -0.5,-0.5 -0.5,-0.5 v -1 l -0.5,-0.5 -0.5,-0.5 -0.5,-0.5 -0.5,-0.5 -0.5,-0.5 -0.5,-0.5 v -1 l -0.5,-0.5 -0.5,-0.5 -0.5,-0.5 -0.5,-0.5 -0.5,-0.5 -0.5,-0.5 -0.5,-0.5 -0.5,-0.5 -0.5,-0.5 -0.5,-0.5 v -1 l -0.5,-0.5 -0.5,-0.5 -0.5,-0.5 -0.5,-0.5 -0.5,-0.5 -0.5,-0.5 -0.5,-0.5 -0.5,-0.5 -0.5,-0.5 -0.5,-0.5 v -1 l -0.5,-0.5 -0.5,-0.5 -0.5,-0.5 -0.5,-0.5 -0.5,-0.5 -0.5,-0.5 -0.5,-0.5 -0.5,-0.5 -0.5,-0.5 -0.5,-0.5 -0.5,-0.5 -0.5,-0.5 -0.5,-0.5 -0.5,-0.5 -0.5,-0.5 -0.5,-0.5 v -1 l -0.5,-0.5 -0.5,-0.5 -0.5,-0.5 -0.5,-0.5 -0.5,-0.5 -0.5,-0.5 -0.5,-0.5 -0.5,-0.5 -0.5,-0.5 -0.5,-0.5 -0.5,-0.5 -0.5,-0.5 -0.5,-0.5 -0.5,-0.5 -0.5,-0.5 -0.5,-0.5 -0.5,-0.5 -0.5,-0.5 -0.5,-0.5 -0.5,-0.5 -0.5,-0.5 -0.5,-0.5 -0.5,-0.5 -0.5,-0.5 -0.5,-0.5 -0.5,-0.5 -0.5,-0.5 -0.5,-0.5 -0.5,-0.5 -0.5,-0.5 -0.5,-0.5 -0.5,-0.5 -0.5,-0.5 -0.5,-0.5 -0.5,-0.5 -0.5,-0.5 -0.5,-0.5 -0.5,-0.5 -0.5,-0.5 -0.5,-0.5 -0.5,-0.5 -0.5,-0.5 -0.5,-0.5 -0.5,-0.5 -0.5,-0.5 -0.5,-0.5 -0.5,-0.5 h -1 l -0.5,-0.5 -0.5,-0.5 -0.5,-0.5 -0.5,-0.5 -0.5,-0.5 -0.5,-0.5 -0.5,-0.5 -0.5,-0.5 -0.5,-0.5 -0.5,-0.5 -0.5,-0.5 -0.5,-0.5 -0.5,-0.5 -0.5,-0.5 h -1 l -0.5,-0.5 -0.5,-0.5 -0.5,-0.5 -0.5,-0.5 -0.5,-0.5 -0.5,-0.5 -0.5,-0.5 -0.5,-0.5 -0.5,-0.5 -0.5,-0.5 -0.5,-0.5 -0.5,-0.5 h -1 l -0.5,-0.5 -0.5,-0.5 -0.5,-0.5 -0.5,-0.5 -0.5,-0.5 -0.5,-0.5 -0.5,-0.5 -0.5,-0.5 h -1 l -0.5,-0.5 -0.5,-0.5 -0.5,-0.5 -0.5,-0.5 -0.5,-0.5 -0.5,-0.5 -0.5,-0.5 -0.5,-0.5 h -1 l -0.5,-0.5 -0.5,-0.5 -0.5,-0.5 -0.5,-0.5 h -1 l -0.5,-0.5 -0.5,-0.5 -0.5,-0.5 -0.5,-0.5 -0.5,-0.5 -0.5,-0.5 h -1 l -0.5,-0.5 -0.5,-0.5 -0.5,-0.5 -0.5,-0.5 -0.5,-0.5 -0.5,-0.5 h -1 l -0.5,-0.5 -0.5,-0.5 -0.5,-0.5 -0.5,-0.5 -0.5,-0.5 -0.5,-0.5 h -1 l -0.5,-0.5 -0.5,-0.5 -0.5,-0.5 -0.5,-0.5 h -1 l -0.5,-0.5 -0.5,-0.5 -0.5,-0.5 -0.5,-0.5 h -1 l -0.5,-0.5 -0.5,-0.5 -0.5,-0.5 -0.5,-0.5 h -1 l -0.5,-0.5 -0.5,-0.5 -0.5,-0.5 -0.5,-0.5 h -1 l -0.5,-0.5 -0.5,-0.5 h -1 l -0.5,-0.5 -0.5,-0.5 -0.5,-0.5 -0.5,-0.5 h -1 l -0.5,-0.5 -0.5,-0.5 -0.5,-0.5 -0.5,-0.5 h -1 l -0.5,-0.5 -0.5,-0.5 h -1 l -0.5,-0.5 -0.5,-0.5 -0.5,-0.5 -0.5,-0.5 h -1 l -0.5,-0.5 -0.5,-0.5 h -1 l -0.5,-0.5 -0.5,-0.5 h -1 l -0.5,-0.5 -0.5,-0.5 -0.5,-0.5 -0.5,-0.5 h -1 l -0.5,-0.5 -0.5,-0.5 h -1 l -0.5,-0.5 -0.5,-0.5 h -1 l -0.5,-0.5 -0.5,-0.5 h -1 l -0.5,-0.5 -0.5,-0.5 h -1 l -0.5,-0.5 -0.5,-0.5 h -1 l -0.5,-0.5 -0.5,-0.5 h -1 l -0.5,-0.5 -0.5,-0.5 h -1 l -0.5,-0.5 -0.5,-0.5 h -1 l -0.5,-0.5 -0.5,-0.5 h -1 l -0.5,-0.5 -0.5,-0.5 h -1 l -0.5,-0.5 -0.5,-0.5 h -1 l -0.5,-0.5 -0.5,-0.5 h -1 l -0.5,-0.5 -0.5,-0.5 h -1 l -0.5,-0.5 -0.5,-0.5 h -1 l -0.5,-0.5 -0.5,-0.5 h -1 -1 l -0.5,-0.5 -0.5,-0.5 h -1 l -0.5,-0.5 -0.5,-0.5 h -1 -1 l -0.5,-0.5 -0.5,-0.5 h -1 l -0.5,-0.5 -0.5,-0.5 h -1 l -0.5,-0.5 -0.5,-0.5 h -1 -1 l -0.5,-0.5 -0.5,-0.5 h -1 l -0.5,-0.5 -0.5,-0.5 h -1 -1 l -0.5,-0.5 -0.5,-0.5 h -1 l -0.5,-0.5 -0.5,-0.5 h -1 -1 l -0.5,-0.5 -0.5,-0.5 h -1 -1 l -0.5,-0.5 -0.5,-0.5 h -1 -1 l -0.5,-0.5 -0.5,-0.5 h -1 l -0.5,-0.5 -0.5,-0.5 h -1 -1 l -0.5,-0.5 -0.5,-0.5 h -1 -1 l -0.5,-0.5 -0.5,-0.5 h -1 -1 l -0.5,-0.5 -0.5,-0.5 h -1 -1 l -0.5,-0.5 -0.5,-0.5 h -1 -1 l -0.5,-0.5 -0.5,-0.5 h -1 -1 l -0.5,-0.5 -0.5,-0.5 h -1 -1 l -0.5,-0.5 -0.5,-0.5 h -1 -1 -1 -1 -1 -1 -1 -1 -1 -1 -1 -1 l -0.5,0.5 -0.5,0.5 h -1 l -0.5,0.5 -0.5,0.5 -0.5,0.5 -0.5,0.5 h -1 l -0.5,0.5 -0.5,0.5 -0.5,0.5 -0.5,0.5 -0.5,0.5 -0.5,0.5 -0.5,0.5 v 1 l -0.5,0.5 -0.5,0.5 v 1 l -0.5,0.5 -0.5,0.5 v 1 l -0.5,0.5 z"
       fill="#000000"
       stroke="none"
       id="path893" />
    <path
       d="m 584.5,856 v 1 1 1 1 1 1 1 1 1 l 0.5,0.5 0.5,0.5 v 1 l 0.5,0.5 0.5,0.5 v 1 l 0.5,0.5 0.5,0.5 v 1 l 0.5,0.5 0.5,0.5 0.5,0.5 0.5,0.5 0.5,0.5 0.5,0.5 0.5,0.5 h 1 l 0.5,0.5 0.5,0.5 h 1 l 0.5,0.5 0.5,0.5 h 1 l 0.5,0.5 0.5,0.5 h 1 1 1 1 1 1 1 1 1 1 1 l 0.5,-0.5 0.5,-0.5 h 1 1 l 0.5,-0.5 0.5,-0.5 h 1 1 l 0.5,-0.5 0.5,-0.5 h 1 1 1 l 0.5,-0.5 0.5,-0.5 h 1 1 l 0.5,-0.5 0.5,-0.5 h 1 1 l 0.5,-0.5 0.5,-0.5 h 1 1 l 0.5,-0.5 0.5,-0.5 h 1 1 l 0.5,-0.5 0.5,-0.5 h 1 1 l 0.5,-0.5 0.5,-0.5 h 1 1 l 0.5,-0.5 0.5,-0.5 h 1 l 0.5,-0.5 0.5,-0.5 h 1 1 l 0.5,-0.5 0.5,-0.5 h 1 1 l 0.5,-0.5 0.5,-0.5 h 1 l 0.5,-0.5 0.5,-0.5 h 1 1 l 0.5,-0.5 0.5,-0.5 h 1 l 0.5,-0.5 0.5,-0.5 h 1 1 l 0.5,-0.5 0.5,-0.5 h 1 l 0.5,-0.5 0.5,-0.5 h 1 1 l 0.5,-0.5 0.5,-0.5 h 1 l 0.5,-0.5 0.5,-0.5 h 1 l 0.5,-0.5 0.5,-0.5 h 1 l 0.5,-0.5 0.5,-0.5 h 1 1 l 0.5,-0.5 0.5,-0.5 h 1 l 0.5,-0.5 0.5,-0.5 h 1 l 0.5,-0.5 0.5,-0.5 h 1 l 0.5,-0.5 0.5,-0.5 h 1 l 0.5,-0.5 0.5,-0.5 h 1 l 0.5,-0.5 0.5,-0.5 h 1 l 0.5,-0.5 0.5,-0.5 h 1 l 0.5,-0.5 0.5,-0.5 h 1 l 0.5,-0.5 0.5,-0.5 h 1 l 0.5,-0.5 0.5,-0.5 h 1 l 0.5,-0.5 0.5,-0.5 0.5,-0.5 0.5,-0.5 h 1 l 0.5,-0.5 0.5,-0.5 h 1 l 0.5,-0.5 0.5,-0.5 h 1 l 0.5,-0.5 0.5,-0.5 h 1 l 0.5,-0.5 0.5,-0.5 0.5,-0.5 0.5,-0.5 h 1 l 0.5,-0.5 0.5,-0.5 h 1 l 0.5,-0.5 0.5,-0.5 0.5,-0.5 0.5,-0.5 h 1 l 0.5,-0.5 0.5,-0.5 h 1 l 0.5,-0.5 0.5,-0.5 0.5,-0.5 0.5,-0.5 h 1 l 0.5,-0.5 0.5,-0.5 0.5,-0.5 0.5,-0.5 h 1 l 0.5,-0.5 0.5,-0.5 h 1 l 0.5,-0.5 0.5,-0.5 0.5,-0.5 0.5,-0.5 h 1 l 0.5,-0.5 0.5,-0.5 0.5,-0.5 0.5,-0.5 h 1 l 0.5,-0.5 0.5,-0.5 0.5,-0.5 0.5,-0.5 0.5,-0.5 0.5,-0.5 h 1 l 0.5,-0.5 0.5,-0.5 0.5,-0.5 0.5,-0.5 h 1 l 0.5,-0.5 0.5,-0.5 0.5,-0.5 0.5,-0.5 h 1 l 0.5,-0.5 0.5,-0.5 0.5,-0.5 0.5,-0.5 0.5,-0.5 0.5,-0.5 h 1 l 0.5,-0.5 0.5,-0.5 0.5,-0.5 0.5,-0.5 0.5,-0.5 0.5,-0.5 h 1 l 0.5,-0.5 0.5,-0.5 0.5,-0.5 0.5,-0.5 0.5,-0.5 0.5,-0.5 0.5,-0.5 0.5,-0.5 h 1 l 0.5,-0.5 0.5,-0.5 0.5,-0.5 0.5,-0.5 0.5,-0.5 0.5,-0.5 0.5,-0.5 0.5,-0.5 h 1 l 0.5,-0.5 0.5,-0.5 0.5,-0.5 0.5,-0.5 0.5,-0.5 0.5,-0.5 0.5,-0.5 0.5,-0.5 0.5,-0.5 0.5,-0.5 h 1 l 0.5,-0.5 0.5,-0.5 0.5,-0.5 0.5,-0.5 0.5,-0.5 0.5,-0.5 0.5,-0.5 0.5,-0.5 0.5,-0.5 0.5,-0.5 0.5,-0.5 0.5,-0.5 0.5,-0.5 0.5,-0.5 0.5,-0.5 0.5,-0.5 0.5,-0.5 0.5,-0.5 h 1 l 0.5,-0.5 0.5,-0.5 0.5,-0.5 0.5,-0.5 0.5,-0.5 0.5,-0.5 0.5,-0.5 0.5,-0.5 0.5,-0.5 0.5,-0.5 0.5,-0.5 0.5,-0.5 0.5,-0.5 0.5,-0.5 0.5,-0.5 0.5,-0.5 0.5,-0.5 0.5,-0.5 0.5,-0.5 0.5,-0.5 0.5,-0.5 0.5,-0.5 0.5,-0.5 0.5,-0.5 0.5,-0.5 0.5,-0.5 0.5,-0.5 0.5,-0.5 0.5,-0.5 0.5,-0.5 0.5,-0.5 0.5,-0.5 0.5,-0.5 0.5,-0.5 0.5,-0.5 0.5,-0.5 0.5,-0.5 0.5,-0.5 0.5,-0.5 0.5,-0.5 0.5,-0.5 v -1 l 0.5,-0.5 0.5,-0.5 0.5,-0.5 0.5,-0.5 0.5,-0.5 0.5,-0.5 0.5,-0.5 0.5,-0.5 0.5,-0.5 0.5,-0.5 0.5,-0.5 0.5,-0.5 0.5,-0.5 0.5,-0.5 0.5,-0.5 0.5,-0.5 0.5,-0.5 0.5,-0.5 v -1 l 0.5,-0.5 0.5,-0.5 0.5,-0.5 0.5,-0.5 0.5,-0.5 0.5,-0.5 0.5,-0.5 0.5,-0.5 0.5,-0.5 0.5,-0.5 0.5,-0.5 0.5,-0.5 v -1 l 0.5,-0.5 0.5,-0.5 0.5,-0.5 0.5,-0.5 0.5,-0.5 0.5,-0.5 0.5,-0.5 0.5,-0.5 v -1 l 0.5,-0.5 0.5,-0.5 0.5,-0.5 0.5,-0.5 0.5,-0.5 0.5,-0.5 0.5,-0.5 0.5,-0.5 v -1 l 0.5,-0.5 0.5,-0.5 0.5,-0.5 0.5,-0.5 0.5,-0.5 0.5,-0.5 v -1 l 0.5,-0.5 0.5,-0.5 0.5,-0.5 0.5,-0.5 0.5,-0.5 0.5,-0.5 v -1 l 0.5,-0.5 0.5,-0.5 0.5,-0.5 0.5,-0.5 v -1 l 0.5,-0.5 0.5,-0.5 0.5,-0.5 0.5,-0.5 0.5,-0.5 0.5,-0.5 v -1 l 0.5,-0.5 0.5,-0.5 0.5,-0.5 0.5,-0.5 v -1 l 0.5,-0.5 0.5,-0.5 0.5,-0.5 0.5,-0.5 v -1 l 0.5,-0.5 0.5,-0.5 0.5,-0.5 0.5,-0.5 v -1 l 0.5,-0.5 0.5,-0.5 0.5,-0.5 0.5,-0.5 v -1 l 0.5,-0.5 0.5,-0.5 0.5,-0.5 0.5,-0.5 v -1 l 0.5,-0.5 0.5,-0.5 0.5,-0.5 0.5,-0.5 v -1 l 0.5,-0.5 0.5,-0.5 v -1 l 0.5,-0.5 0.5,-0.5 0.5,-0.5 0.5,-0.5 v -1 l 0.5,-0.5 0.5,-0.5 v -1 l 0.5,-0.5 0.5,-0.5 0.5,-0.5 0.5,-0.5 v -1 l 0.5,-0.5 0.5,-0.5 v -1 l 0.5,-0.5 0.5,-0.5 v -1 l 0.5,-0.5 0.5,-0.5 0.5,-0.5 0.5,-0.5 v -1 l 0.5,-0.5 0.5,-0.5 v -1 l 0.5,-0.5 0.5,-0.5 v -1 l 0.5,-0.5 0.5,-0.5 v -1 l 0.5,-0.5 0.5,-0.5 v -1 l 0.5,-0.5 0.5,-0.5 v -1 l 0.5,-0.5 0.5,-0.5 v -1 l 0.5,-0.5 0.5,-0.5 v -1 l 0.5,-0.5 0.5,-0.5 v -1 l 0.5,-0.5 0.5,-0.5 v -1 l 0.5,-0.5 0.5,-0.5 v -1 l 0.5,-0.5 0.5,-0.5 v -1 l 0.5,-0.5 0.5,-0.5 v -1 l 0.5,-0.5 0.5,-0.5 v -1 -1 l 0.5,-0.5 0.5,-0.5 v -1 l 0.5,-0.5 0.5,-0.5 v -1 l 0.5,-0.5 0.5,-0.5 v -1 -1 l 0.5,-0.5 0.5,-0.5 v -1 l 0.5,-0.5 0.5,-0.5 v -1 l 0.5,-0.5 0.5,-0.5 v -1 -1 l 0.5,-0.5 0.5,-0.5 v -1 -1 l 0.5,-0.5 0.5,-0.5 v -1 l 0.5,-0.5 0.5,-0.5 v -1 -1 l 0.5,-0.5 0.5,-0.5 v -1 l 0.5,-0.5 0.5,-0.5 v -1 -1 l 0.5,-0.5 0.5,-0.5 v -1 -1 l 0.5,-0.5 0.5,-0.5 v -1 -1 l 0.5,-0.5 0.5,-0.5 v -1 -1 l 0.5,-0.5 0.5,-0.5 v -1 -1 l 0.5,-0.5 0.5,-0.5 v -1 -1 l 0.5,-0.5 0.5,-0.5 v -1 -1 l 0.5,-0.5 0.5,-0.5 v -1 -1 -1 l 0.5,-0.5 0.5,-0.5 v -1 -1 l 0.5,-0.5 0.5,-0.5 v -1 -1 -1 l 0.5,-0.5 0.5,-0.5 v -1 -1 -1 -1 -1 -1 -1 l -0.5,-0.5 -0.5,-0.5 v -1 -1 l -0.5,-0.5 -0.5,-0.5 v -1 l -0.5,-0.5 -0.5,-0.5 -0.5,-0.5 -0.5,-0.5 -0.5,-0.5 -0.5,-0.5 -0.5,-0.5 -0.5,-0.5 -0.5,-0.5 -0.5,-0.5 -0.5,-0.5 -0.5,-0.5 -0.5,-0.5 h -1 l -0.5,-0.5 -0.5,-0.5 h -1 l -0.5,-0.5 -0.5,-0.5 h -1 -1 -1 -1 l -0.5,-0.5 -0.5,-0.5 h -1 l -0.5,0.5 -0.5,0.5 h -1 -1 -1 -1 l -0.5,0.5 -0.5,0.5 h -1 l -0.5,0.5 -0.5,0.5 h -1 l -0.5,0.5 -0.5,0.5 -0.5,0.5 -0.5,0.5 -0.5,0.5 -0.5,0.5 -0.5,0.5 -0.5,0.5 -0.5,0.5 -0.5,0.5 -0.5,0.5 -0.5,0.5 -0.5,0.5 v 1 l -0.5,0.5 -0.5,0.5 v 1 1 l -0.5,0.5 -0.5,0.5 v 1 1 l -0.5,0.5 -0.5,0.5 v 1 1 l -0.5,0.5 -0.5,0.5 v 1 1 1 l -0.5,0.5 -0.5,0.5 v 1 1 l -0.5,0.5 -0.5,0.5 v 1 1 l -0.5,0.5 -0.5,0.5 v 1 1 l -0.5,0.5 -0.5,0.5 v 1 1 l -0.5,0.5 -0.5,0.5 v 1 1 l -0.5,0.5 -0.5,0.5 v 1 1 l -0.5,0.5 -0.5,0.5 v 1 1 l -0.5,0.5 -0.5,0.5 v 1 l -0.5,0.5 -0.5,0.5 v 1 1 l -0.5,0.5 -0.5,0.5 v 1 l -0.5,0.5 -0.5,0.5 v 1 1 l -0.5,0.5 -0.5,0.5 v 1 l -0.5,0.5 -0.5,0.5 v 1 1 l -0.5,0.5 -0.5,0.5 v 1 l -0.5,0.5 -0.5,0.5 v 1 l -0.5,0.5 -0.5,0.5 v 1 l -0.5,0.5 -0.5,0.5 v 1 1 l -0.5,0.5 -0.5,0.5 v 1 l -0.5,0.5 -0.5,0.5 v 1 l -0.5,0.5 -0.5,0.5 v 1 l -0.5,0.5 -0.5,0.5 v 1 l -0.5,0.5 -0.5,0.5 v 1 l -0.5,0.5 -0.5,0.5 v 1 l -0.5,0.5 -0.5,0.5 v 1 l -0.5,0.5 -0.5,0.5 v 1 l -0.5,0.5 -0.5,0.5 v 1 l -0.5,0.5 -0.5,0.5 v 1 l -0.5,0.5 -0.5,0.5 -0.5,0.5 -0.5,0.5 v 1 l -0.5,0.5 -0.5,0.5 v 1 l -0.5,0.5 -0.5,0.5 v 1 l -0.5,0.5 -0.5,0.5 -0.5,0.5 -0.5,0.5 v 1 l -0.5,0.5 -0.5,0.5 v 1 l -0.5,0.5 -0.5,0.5 -0.5,0.5 -0.5,0.5 v 1 l -0.5,0.5 -0.5,0.5 v 1 l -0.5,0.5 -0.5,0.5 -0.5,0.5 -0.5,0.5 v 1 l -0.5,0.5 -0.5,0.5 v 1 l -0.5,0.5 -0.5,0.5 -0.5,0.5 -0.5,0.5 v 1 l -0.5,0.5 -0.5,0.5 -0.5,0.5 -0.5,0.5 v 1 l -0.5,0.5 -0.5,0.5 -0.5,0.5 -0.5,0.5 v 1 l -0.5,0.5 -0.5,0.5 -0.5,0.5 -0.5,0.5 -0.5,0.5 -0.5,0.5 v 1 l -0.5,0.5 -0.5,0.5 -0.5,0.5 -0.5,0.5 v 1 l -0.5,0.5 -0.5,0.5 -0.5,0.5 -0.5,0.5 -0.5,0.5 -0.5,0.5 v 1 l -0.5,0.5 -0.5,0.5 -0.5,0.5 -0.5,0.5 -0.5,0.5 -0.5,0.5 v 1 l -0.5,0.5 -0.5,0.5 -0.5,0.5 -0.5,0.5 -0.5,0.5 -0.5,0.5 v 1 l -0.5,0.5 -0.5,0.5 -0.5,0.5 -0.5,0.5 -0.5,0.5 -0.5,0.5 -0.5,0.5 -0.5,0.5 v 1 l -0.5,0.5 -0.5,0.5 -0.5,0.5 -0.5,0.5 -0.5,0.5 -0.5,0.5 -0.5,0.5 -0.5,0.5 -0.5,0.5 -0.5,0.5 -0.5,0.5 -0.5,0.5 v 1 l -0.5,0.5 -0.5,0.5 -0.5,0.5 -0.5,0.5 -0.5,0.5 -0.5,0.5 -0.5,0.5 -0.5,0.5 -0.5,0.5 -0.5,0.5 -0.5,0.5 -0.5,0.5 -0.5,0.5 -0.5,0.5 -0.5,0.5 -0.5,0.5 -0.5,0.5 -0.5,0.5 -0.5,0.5 -0.5,0.5 -0.5,0.5 -0.5,0.5 v 1 l -0.5,0.5 -0.5,0.5 -0.5,0.5 -0.5,0.5 -0.5,0.5 -0.5,0.5 -0.5,0.5 -0.5,0.5 -0.5,0.5 -0.5,0.5 -0.5,0.5 -0.5,0.5 -0.5,0.5 -0.5,0.5 -0.5,0.5 -0.5,0.5 -0.5,0.5 -0.5,0.5 -0.5,0.5 -0.5,0.5 -0.5,0.5 h -1 l -0.5,0.5 -0.5,0.5 -0.5,0.5 -0.5,0.5 -0.5,0.5 -0.5,0.5 -0.5,0.5 -0.5,0.5 -0.5,0.5 -0.5,0.5 -0.5,0.5 -0.5,0.5 -0.5,0.5 -0.5,0.5 -0.5,0.5 -0.5,0.5 -0.5,0.5 -0.5,0.5 -0.5,0.5 -0.5,0.5 -0.5,0.5 -0.5,0.5 h -1 l -0.5,0.5 -0.5,0.5 -0.5,0.5 -0.5,0.5 -0.5,0.5 -0.5,0.5 -0.5,0.5 -0.5,0.5 -0.5,0.5 -0.5,0.5 -0.5,0.5 -0.5,0.5 h -1 l -0.5,0.5 -0.5,0.5 -0.5,0.5 -0.5,0.5 -0.5,0.5 -0.5,0.5 -0.5,0.5 -0.5,0.5 h -1 l -0.5,0.5 -0.5,0.5 -0.5,0.5 -0.5,0.5 -0.5,0.5 -0.5,0.5 -0.5,0.5 -0.5,0.5 h -1 l -0.5,0.5 -0.5,0.5 -0.5,0.5 -0.5,0.5 -0.5,0.5 -0.5,0.5 h -1 l -0.5,0.5 -0.5,0.5 -0.5,0.5 -0.5,0.5 -0.5,0.5 -0.5,0.5 h -1 l -0.5,0.5 -0.5,0.5 -0.5,0.5 -0.5,0.5 h -1 l -0.5,0.5 -0.5,0.5 -0.5,0.5 -0.5,0.5 -0.5,0.5 -0.5,0.5 h -1 l -0.5,0.5 -0.5,0.5 -0.5,0.5 -0.5,0.5 h -1 l -0.5,0.5 -0.5,0.5 -0.5,0.5 -0.5,0.5 h -1 l -0.5,0.5 -0.5,0.5 -0.5,0.5 -0.5,0.5 h -1 l -0.5,0.5 -0.5,0.5 h -1 l -0.5,0.5 -0.5,0.5 -0.5,0.5 -0.5,0.5 h -1 l -0.5,0.5 -0.5,0.5 -0.5,0.5 -0.5,0.5 h -1 l -0.5,0.5 -0.5,0.5 h -1 l -0.5,0.5 -0.5,0.5 h -1 l -0.5,0.5 -0.5,0.5 -0.5,0.5 -0.5,0.5 h -1 l -0.5,0.5 -0.5,0.5 h -1 l -0.5,0.5 -0.5,0.5 h -1 l -0.5,0.5 -0.5,0.5 -0.5,0.5 -0.5,0.5 h -1 l -0.5,0.5 -0.5,0.5 h -1 l -0.5,0.5 -0.5,0.5 h -1 l -0.5,0.5 -0.5,0.5 h -1 l -0.5,0.5 -0.5,0.5 h -1 l -0.5,0.5 -0.5,0.5 h -1 l -0.5,0.5 -0.5,0.5 h -1 l -0.5,0.5 -0.5,0.5 h -1 l -0.5,0.5 -0.5,0.5 h -1 l -0.5,0.5 -0.5,0.5 h -1 l -0.5,0.5 -0.5,0.5 h -1 -1 l -0.5,0.5 -0.5,0.5 h -1 l -0.5,0.5 -0.5,0.5 h -1 l -0.5,0.5 -0.5,0.5 h -1 -1 l -0.5,0.5 -0.5,0.5 h -1 l -0.5,0.5 -0.5,0.5 h -1 -1 l -0.5,0.5 -0.5,0.5 h -1 l -0.5,0.5 -0.5,0.5 h -1 -1 l -0.5,0.5 -0.5,0.5 h -1 l -0.5,0.5 -0.5,0.5 h -1 -1 l -0.5,0.5 -0.5,0.5 h -1 -1 l -0.5,0.5 -0.5,0.5 h -1 -1 l -0.5,0.5 -0.5,0.5 h -1 -1 l -0.5,0.5 -0.5,0.5 h -1 -1 l -0.5,0.5 -0.5,0.5 h -1 -1 l -0.5,0.5 -0.5,0.5 h -1 -1 l -0.5,0.5 -0.5,0.5 h -1 -1 l -0.5,0.5 -0.5,0.5 h -1 -1 -1 l -0.5,0.5 -0.5,0.5 h -1 -1 -1 l -0.5,0.5 -0.5,0.5 h -1 l -0.5,0.5 -0.5,0.5 h -1 l -0.5,0.5 -0.5,0.5 h -1 l -0.5,0.5 -0.5,0.5 -0.5,0.5 -0.5,0.5 -0.5,0.5 -0.5,0.5 -0.5,0.5 -0.5,0.5 -0.5,0.5 -0.5,0.5 -0.5,0.5 v 1 l -0.5,0.5 -0.5,0.5 v 1 1 l -0.5,0.5 z"
       fill="#000000"
       stroke="none"
       id="path895" />
    <g
       id="g7999">
      <path
         id="path867"
         style="display:inline;fill:#ffffff"
         inkscape:label="path867"
         d="M 326.70239 517.51086 L 327.20357 518.01009 L 327.70321 518.51086 L 327.70321 519.51087 L 327.70321 520.51088 L 327.70321 521.51088 L 327.70321 522.51089 L 327.70321 523.51089 L 328.20286 524.01013 L 328.7025 524.5109 L 328.7025 525.51091 L 328.7025 526.51091 L 328.7025 527.51092 L 329.20368 528.01015 L 329.70332 528.51092 L 329.70332 529.51093 L 329.70332 530.51094 L 329.70332 531.51094 L 330.20297 532.01017 L 330.70261 532.51095 L 330.70261 533.51095 L 330.70261 534.51096 L 331.20225 535.01019 L 331.70343 535.51097 L 331.70343 536.51097 L 332.20308 537.0102 L 332.70272 537.51098 L 332.70272 538.51098 L 333.20236 539.01022 L 333.70355 539.51099 L 333.70355 540.50946 L 334.20319 541.01023 L 334.70283 541.50946 L 334.70283 542.50947 L 335.20248 543.01024 L 335.70366 543.50947 L 335.70366 544.50948 L 336.2033 545.01025 L 336.70294 545.50949 L 336.70294 546.50949 L 337.20259 547.01026 L 337.70377 547.5095 L 337.70377 548.5095 L 338.20341 549.01028 L 338.70306 549.50951 L 339.2027 550.01028 L 339.70234 550.50952 L 339.70234 551.50952 L 340.20352 552.01029 L 340.70317 552.50953 L 341.20281 553.0103 L 341.70245 553.50953 L 342.20363 554.01031 L 342.70328 554.50954 L 343.20292 555.01031 L 343.70257 555.50955 L 343.70257 556.50955 L 344.20375 557.01033 L 344.70339 557.50956 L 345.20303 558.01033 L 345.70268 558.50956 L 346.20232 559.01034 L 346.7035 559.50957 L 347.20314 560.01034 L 347.70279 560.50958 L 348.20243 561.01035 L 348.70361 561.50958 L 349.20326 562.01036 L 349.7029 562.50959 L 350.20254 563.01036 L 350.70372 563.50959 L 351.20337 564.01037 L 351.70301 564.5096 L 352.20265 565.01037 L 353.20348 565.01037 L 353.70312 565.50961 L 354.20277 566.01038 L 354.70241 566.50961 L 355.20359 567.01039 L 355.70323 567.50962 L 356.20288 568.01039 L 356.70252 568.50962 L 357.2037 569.0104 L 358.20299 569.0104 L 358.70263 569.50963 L 359.20227 570.0104 L 359.70346 570.50964 L 360.2031 571.01041 L 361.20239 571.01041 L 361.70357 571.50964 L 362.20321 572.01042 L 362.70285 572.50965 L 363.2025 573.01042 L 364.20332 573.01042 L 364.70297 573.50965 L 365.20261 574.01043 L 366.20343 574.01043 L 366.70308 574.50966 L 367.20272 575.01043 L 368.20354 575.01043 L 368.70319 575.50967 L 369.20283 576.01044 L 370.20366 576.01044 L 370.7033 576.50967 L 371.20294 577.01045 L 372.20377 577.01045 L 372.70341 577.50968 L 373.20305 578.01045 L 374.20234 578.01045 L 375.20317 578.01045 L 375.70281 578.50968 L 376.20245 579.01046 L 377.20328 579.01046 L 378.20256 579.01046 L 378.70374 579.50969 L 379.20339 580.01046 L 380.20267 580.01046 L 381.2035 580.01046 L 381.70314 580.5097 L 382.20279 581.01047 L 383.20361 581.01047 L 384.2029 581.01047 L 384.70254 581.5097 L 385.20372 582.01048 L 386.20301 582.01048 L 387.2023 582.01048 L 388.20312 582.01048 L 389.20241 582.01048 L 389.70359 582.50971 L 390.20323 583.01048 L 391.20252 583.01048 L 392.20334 583.01048 L 393.20263 583.01048 L 394.20345 583.01048 L 395.20274 583.01048 L 396.20357 583.01048 L 397.20285 583.01048 L 398.20368 583.01048 L 398.70332 583.50971 L 399.20296 584.01049 L 400.20379 584.01049 L 401.20308 584.01049 L 402.20236 584.01049 L 403.20319 584.01049 L 404.20247 584.01049 L 405.2033 584.01049 L 406.20258 584.01049 L 407.20341 584.01049 L 408.2027 584.01049 L 408.70234 583.50971 L 409.20352 583.01048 L 410.20281 583.01048 L 411.20363 583.01048 L 412.20292 583.01048 L 413.20374 583.01048 L 414.20303 583.01048 L 415.20232 583.01048 L 416.20314 583.01048 L 416.70278 582.50971 L 417.20243 582.01048 L 418.20325 582.01048 L 419.20254 582.01048 L 420.20336 582.01048 L 421.20265 582.01048 L 421.70229 581.5097 L 422.20348 581.01047 L 423.20276 581.01047 L 424.20359 581.01047 L 424.70323 580.5097 L 425.20287 580.01046 L 426.2037 580.01046 L 427.20298 580.01046 L 427.70263 579.50969 L 428.20227 579.01046 L 429.2031 579.01046 L 429.70274 578.50968 L 430.20238 578.01045 L 431.20321 578.01045 L 432.20249 578.01045 L 432.70368 577.50968 L 433.20332 577.01045 L 434.20261 577.01045 L 434.70379 576.50967 L 435.20343 576.01044 L 435.70307 575.50967 L 436.20272 575.01043 L 437.20354 575.01043 L 437.70318 574.50966 L 438.20283 574.01043 L 439.20365 574.01043 L 439.7033 573.50965 L 440.20294 573.01042 L 440.70258 572.50965 L 441.20376 572.01042 L 442.20305 572.01042 L 442.70269 571.50964 L 443.20234 571.01041 L 443.70352 570.50964 L 444.20316 570.0104 L 444.70281 569.50963 L 445.20245 569.0104 L 446.20327 569.0104 L 446.70292 568.50962 L 447.20256 568.01039 L 447.70374 567.50962 L 448.20339 567.01039 L 448.70303 566.50961 L 449.20267 566.01038 L 450.2035 566.01038 L 450.70314 565.50961 L 451.20278 565.01037 L 451.70243 564.5096 L 452.20361 564.01037 L 452.70325 563.50959 L 453.20289 563.01036 L 454.20372 563.01036 L 454.70336 562.50959 L 455.20301 562.01036 L 455.70265 561.50958 L 456.20229 561.01035 L 456.70347 560.50958 L 457.20312 560.01034 L 457.70276 559.50957 L 458.2024 559.01034 L 459.20323 559.01034 L 459.70287 558.50956 L 460.20252 558.01033 L 460.7037 557.50956 L 461.20334 557.01033 L 461.70298 556.50955 L 462.20263 556.01032 L 462.70227 555.50955 L 463.20345 555.01031 L 464.20274 555.01031 L 464.70238 554.50954 L 465.20356 554.01031 L 465.70321 553.50953 L 466.20285 553.0103 L 466.70249 552.50953 L 467.20367 552.01029 L 467.70332 551.50952 L 468.20296 551.01029 L 469.20379 551.01029 L 469.70343 550.50952 L 470.20307 550.01028 L 470.70272 549.50951 L 471.20236 549.01028 L 471.70354 548.5095 L 472.20318 548.01027 L 472.70283 547.5095 L 473.20247 547.01026 L 474.20329 547.01026 L 474.70294 546.50949 L 475.20258 546.01026 L 475.70376 545.50949 L 476.20341 545.01025 L 476.70305 544.50948 L 477.20269 544.01025 L 477.70234 543.50947 L 478.20352 543.01024 L 479.2028 543.01024 L 479.70245 542.50947 L 480.20363 542.01023 L 480.70327 541.50946 L 481.20292 541.01023 L 481.70256 540.50946 L 482.20374 540.01022 L 482.70338 539.51099 L 483.20303 539.01022 L 483.70267 538.51098 L 484.20231 538.01021 L 485.20314 538.01021 L 485.70278 537.51098 L 486.20243 537.0102 L 486.70361 536.51097 L 487.20325 536.0102 L 487.70289 535.51097 L 488.20254 535.01019 L 488.70372 534.51096 L 489.20336 534.01019 L 489.703 533.51095 L 490.20265 533.01018 L 491.20347 533.01018 L 491.70312 532.51095 L 492.20276 532.01017 L 492.7024 531.51094 L 493.20358 531.01017 L 493.70323 530.51094 L 494.20287 530.01016 L 494.70251 529.51093 L 495.2037 529.01016 L 496.20298 529.01016 L 496.70263 528.51092 L 497.20227 528.01015 L 497.70345 527.51092 L 498.20309 527.01014 L 498.70274 526.51091 L 499.20238 526.01014 L 499.70356 525.51091 L 500.2032 525.01013 L 500.70285 524.5109 L 501.20249 524.01013 L 502.20332 524.01013 L 502.70296 523.51089 L 503.2026 523.01012 L 503.70378 522.51089 L 504.20343 522.01011 L 504.70307 521.51088 L 505.20271 521.01011 L 505.70236 520.51088 L 506.20354 520.0101 L 506.70318 519.51087 L 507.20283 519.0101 L 508.20365 519.0101 L 508.70329 518.51086 L 509.20294 518.01009 L 509.70258 517.51086 L 510.20376 517.01008 L 510.7034 516.51085 L 511.20305 516.01008 L 511.70269 515.51085 L 512.20234 515.01007 L 512.70352 514.51084 L 513.20316 514.01007 L 514.20245 514.01007 L 514.70363 513.51083 L 515.20327 513.01006 L 515.70291 512.51083 L 516.20256 512.01005 L 516.70374 511.51082 L 517.20338 511.01005 L 517.50009 510.71421 L 517.50009 509.99926 L 517.50009 508.99925 L 517.50009 507.99924 L 517.00045 507.50001 L 516.49927 506.99924 L 516.49927 505.99923 L 515.99963 505.5 L 515.49998 505.00077 L 515.00034 504.49999 L 514.5007 504.00076 L 513.99951 503.49999 L 513.49987 503.00076 L 513.00023 502.49998 L 511.9994 502.49998 L 511.49976 502.00075 L 511.00012 501.49998 L 510.50047 501.00074 L 509.99929 500.49997 L 509.49965 500.00074 L 509 499.49996 L 508.50036 499.00073 L 508.00072 498.49996 L 507.49954 498.00073 L 506.99989 497.49995 L 506.00061 497.49995 L 505.49943 497.00072 L 504.99978 496.49995 L 504.50014 496.00071 L 504.0005 495.49994 L 503.49931 495.00071 L 502.99967 494.49993 L 502.50003 494.0007 L 502.00038 493.49993 L 500.99956 493.49993 L 500.49992 493.0007 L 500.00027 492.49992 L 499.50063 492.00069 L 498.99945 491.49992 L 498.4998 491.00068 L 498.00016 490.49991 L 497.50052 490.00068 L 496.99934 489.4999 L 496.49969 489.00067 L 496.00005 488.4999 L 495.00076 488.4999 L 494.49958 488.00066 L 493.99994 487.49989 L 493.5003 487.00066 L 493.00065 486.49989 L 492.49947 486.00065 L 491.99983 485.49988 L 491.50018 485.00065 L 491.00054 484.49987 L 489.99972 484.49987 L 489.50007 484.00064 L 489.00043 483.49987 L 488.49925 483.00063 L 487.9996 482.49986 L 487.49996 482.00063 L 487.00032 481.49986 L 486.50067 481.00062 L 485.99949 480.49985 L 485.49985 480.00062 L 485.00021 479.49984 L 483.99938 479.49984 L 483.49974 479.00061 L 483.0001 478.49984 L 482.50045 478.0006 L 481.99927 477.49983 L 481.49963 477.0006 L 480.99998 476.49983 L 480.50034 476.00059 L 480.0007 475.49982 L 479.49952 475.00059 L 478.99987 474.49981 L 478.00059 474.49981 L 477.4994 474.00058 L 476.99976 473.49981 L 476.50012 473.00057 L 476.00047 472.4998 L 475.49929 472.00057 L 474.99965 471.4998 L 474.50001 471.00056 L 474.00036 470.49979 L 473.50072 470.00056 L 472.99954 469.49978 L 472.00025 469.49978 L 471.50061 469.00055 L 470.99943 468.49978 L 470.49978 468.00054 L 470.00014 467.49977 L 469.5005 467.00054 L 468.99932 466.49977 L 468.49967 466.00053 L 468.00003 465.49976 L 467.50039 465.00053 L 467.00074 464.49975 L 465.99992 464.49975 L 465.50027 464.00052 L 465.00063 463.49975 L 464.49945 463.00051 L 463.99981 462.49974 L 463.50016 462.00051 L 463.00052 461.49974 L 461.99969 461.49974 L 461.50005 461.0005 L 461.00041 460.49973 L 460.50076 460.0005 L 459.99958 459.49972 L 459.49994 459.00049 L 459.0003 458.49972 L 458.50065 458.00048 L 457.99947 457.49971 L 457.00019 457.49971 L 456.50054 457.00048 L 455.99936 456.49971 L 455.49972 456.00047 L 455.00007 455.4997 L 454.50043 455.00047 L 453.99925 454.49969 L 453.49961 454.00046 L 452.99996 453.49969 L 452.00068 453.49969 L 451.49949 453.00045 L 450.99985 452.49968 L 450.50021 452.00045 L 450.00056 451.49967 L 448.99974 451.49967 L 448.5001 451.00044 L 448.00045 450.49967 L 447.49927 450.00044 L 446.99963 449.49966 L 446.49999 449.00043 L 446.00034 448.49966 L 444.99952 448.49966 L 444.49987 448.00042 L 444.00023 447.49965 L 443.50059 447.00042 L 442.99941 446.49964 L 442.49976 446.00041 L 442.00012 445.49964 L 440.99929 445.49964 L 440.49965 445.00041 L 440.00001 444.49963 L 439.00072 444.49963 L 438.49954 444.0004 L 437.9999 443.49963 L 437.50025 443.00039 L 437.00061 442.49962 L 435.99979 442.49962 L 435.50014 442.00039 L 435.0005 441.49961 L 433.99967 441.49961 L 433.50003 441.00038 L 433.00039 440.49961 L 431.99956 440.49961 L 431.49992 440.00038 L 431.00028 439.4996 L 429.99945 439.4996 L 429.49981 439.00037 L 429.00016 438.4996 L 427.99934 438.4996 L 427.00005 438.4996 L 426.50041 438.00036 L 426.00077 437.49959 L 424.99994 437.49959 L 424.5003 437.00036 L 424.00065 436.49958 L 422.99983 436.49958 L 422.00054 436.49958 L 420.99972 436.49958 L 420.50008 436.00035 L 420.00043 435.49958 L 418.99961 435.49958 L 418.00032 435.49958 L 416.9995 435.49958 L 416.49985 435.00035 L 416.00021 434.49957 L 414.99938 434.49957 L 414.0001 434.49957 L 412.99927 434.49957 L 411.99999 434.49957 L 411.0007 434.49957 L 409.99988 434.49957 L 409.00059 434.49957 L 408.49941 434.00034 L 407.99976 433.49957 L 407.00048 433.49957 L 405.99965 433.49957 L 405.00037 433.49957 L 403.99954 433.49957 L 403.00025 433.49957 L 401.99943 433.49957 L 401.00014 433.49957 L 399.99932 433.49957 L 399.00003 433.49957 L 398.00074 433.49957 L 396.99992 433.49957 L 396.00063 433.49957 L 395.49945 434.00034 L 394.99981 434.49957 L 394.00052 434.49957 L 392.9997 434.49957 L 392.00041 434.49957 L 390.99959 434.49957 L 390.0003 434.49957 L 388.99948 434.49957 L 388.49983 435.00035 L 388.00019 435.49958 L 386.99936 435.49958 L 386.00008 435.49958 L 384.99925 435.49958 L 383.99997 435.49958 L 383.50032 436.00035 L 383.00068 436.49958 L 381.99985 436.49958 L 381.00057 436.49958 L 380.49939 437.00036 L 379.99974 437.49959 L 379.00046 437.49959 L 377.99963 437.49959 L 377.49999 438.00036 L 377.00034 438.4996 L 375.99952 438.4996 L 375.00023 438.4996 L 374.50059 439.00037 L 373.99941 439.4996 L 373.00012 439.4996 L 372.50048 440.00038 L 371.9993 440.49961 L 371.00001 440.49961 L 370.50037 441.00038 L 370.00072 441.49961 L 368.9999 441.49961 L 368.50026 442.00039 L 368.00061 442.49962 L 366.99979 442.49962 L 366.50014 443.00039 L 366.0005 443.49963 L 364.99968 443.49963 L 364.50003 444.0004 L 364.00039 444.49963 L 362.99957 444.49963 L 362.49992 445.00041 L 362.00028 445.49964 L 361.50063 446.00041 L 360.99945 446.49964 L 360.00017 446.49964 L 359.50052 447.00042 L 358.99934 447.49965 L 358.4997 448.00042 L 358.00006 448.49966 L 357.00077 448.49966 L 356.49959 449.00043 L 355.99994 449.49966 L 355.5003 450.00044 L 355.00066 450.49967 L 354.49948 451.00044 L 353.99983 451.49967 L 353.00055 451.49967 L 352.49937 452.00045 L 351.99972 452.49968 L 351.50008 453.00045 L 351.00043 453.49969 L 350.49925 454.00046 L 349.99961 454.49969 L 349.49997 455.00047 L 349.00032 455.4997 L 348.50068 456.00047 L 347.9995 456.49971 L 347.49986 457.00048 L 347.00021 457.49971 L 346.50057 458.00048 L 345.99939 458.49972 L 345.49974 459.00049 L 345.0001 459.49972 L 344.50046 460.0005 L 343.99928 460.49973 L 343.70257 460.79711 L 343.70257 461.51052 L 343.20292 462.00975 L 342.70328 462.51053 L 342.50035 462.71392 L 342.50035 463.00051 L 342.0007 463.49975 L 341.49952 464.00052 L 340.99988 464.49975 L 340.70317 464.79714 L 340.70317 465.51055 L 340.20352 466.00978 L 339.70234 466.51055 L 339.49941 466.71394 L 339.49941 467.00054 L 338.99977 467.49977 L 338.70306 467.79715 L 338.70306 468.51056 L 338.20341 469.0098 L 337.70377 469.51057 L 337.4993 469.71396 L 337.4993 470.00056 L 336.99966 470.49979 L 336.70294 470.79717 L 336.70294 471.51058 L 336.2033 472.00981 L 335.70366 472.51059 L 335.70366 473.51059 L 335.20248 474.00983 L 334.70283 474.5106 L 334.70283 475.51061 L 334.20319 476.00984 L 333.70355 476.51061 L 333.70355 477.51062 L 333.20236 478.00985 L 332.70272 478.51062 L 332.70272 479.51063 L 332.20308 480.00986 L 331.70343 480.51064 L 331.70343 481.51064 L 331.70343 482.51065 L 331.20225 483.00988 L 330.70261 483.51065 L 330.70261 484.51066 L 330.70261 485.51067 L 330.20297 486.0099 L 329.70332 486.51067 L 329.70332 487.51068 L 329.70332 488.51068 L 329.20368 489.00992 L 328.7025 489.51069 L 328.7025 490.5107 L 328.7025 491.5107 L 328.7025 492.51071 L 328.20286 493.00994 L 327.70321 493.51071 L 327.70321 494.51072 L 327.70321 495.51073 L 327.70321 496.51073 L 327.70321 497.51074 L 327.70321 498.51074 L 327.70321 499.51075 L 327.20357 500.00998 L 326.70239 500.51076 L 326.70239 501.51076 L 326.70239 502.51077 L 326.70239 503.51077 L 326.70239 504.51078 L 326.70239 505.51079 L 326.70239 506.51079 L 326.70239 507.5108 L 326.70239 508.5108 L 326.70239 509.51081 L 326.70239 510.51082 L 326.70239 511.51082 L 326.70239 512.51083 L 326.70239 513.51083 L 326.70239 514.51084 L 326.70239 515.51085 L 326.70239 516.51085 L 326.70239 517.51086 z " />
    </g>
    <ellipse
       style="fill:#893eeb;fill-opacity:1;stroke-width:0.884137"
       id="path9745"
       transform="rotate(-90)"
       ry="31.393255"
       rx="31.562576"
       cy="146.11935"
       cx="-509.88641" />
    <ellipse
       style="fill:#893eeb;fill-opacity:1;stroke-width:0.884137"
       id="path9745-6"
       transform="rotate(-90)"
       ry="31.393255"
       rx="31.562576"
       cy="504.84714"
       cx="-872.13788" />
    <ellipse
       style="display:inline;fill:#893eeb;fill-opacity:1;stroke-width:0.884137"
       id="path9745-7"
       transform="rotate(-90)"
       ry="31.393255"
       rx="31.562576"
       cy="871.72009"
       cx="-510.16391" />
    <ellipse
       style="fill:#893eeb;fill-opacity:1;stroke-width:0.884137"
       id="path9745-5"
       transform="rotate(-90)"
       ry="31.393255"
       rx="31.562576"
       cy="505.03049"
       cx="-146.95578" />
  </g>
</svg>
